<svg xmlns="http://www.w3.org/2000/svg" viewBox="0 0 564.264 564.264"><path d="M282.132 564.264c-38.76 0-75.276-7.446-109.548-22.338s-64.158-35.088-89.658-60.588-45.696-55.386-60.588-89.658S0 320.892 0 282.132s7.446-75.276 22.338-109.548 35.088-64.158 60.588-89.658 55.386-45.696 89.658-60.588S243.372 0 282.132 0s75.276 7.446 109.548 22.338 64.158 35.088 89.658 60.588 45.696 55.386 60.588 89.658 22.338 70.788 22.338 109.548-7.446 75.276-22.338 109.548-35.088 64.158-60.588 89.658-55.386 45.696-89.658 60.588c-34.272 14.89-70.788 22.338-109.548 22.338zM520.2 320.688c-2.04-.405-7.55-1.836-16.524-4.28-8.976-2.45-20.196-4.594-33.66-6.43s-28.866-2.958-46.206-3.363c-17.34-.408-35.394.813-54.162 3.672 7.752 21.624 14.484 42.126 20.196 61.506s10.506 36.618 14.382 51.714 6.732 27.744 8.568 37.944c1.836 10.198 3.162 17.137 3.978 20.81 26.93-18.36 49.473-41.413 67.626-69.157 18.156-27.748 30.09-58.55 35.802-92.415zm-143.82 183.6c-.816-5.307-2.448-13.668-4.896-25.092-2.445-11.427-5.712-25.194-9.792-41.313-4.077-16.116-9.075-34.068-14.99-53.854-5.917-19.79-13.16-40.7-21.73-62.73-.408.407-1.02.61-1.836.61-33.864 11.833-62.628 26.01-86.292 42.535-23.664 16.52-42.942 32.436-57.834 47.733s-25.806 28.662-32.742 40.086-11.016 18.156-12.24 20.196c20.808 15.912 43.656 28.354 68.544 37.332 24.888 8.976 51.408 13.464 79.56 13.464 33.048.004 64.464-6.32 94.248-18.968zM102.816 443.7c1.224-2.448 6.324-10.2 15.3-23.258 8.976-13.057 21.726-27.946 38.25-44.677 16.524-16.728 36.618-33.558 60.282-50.488 23.664-16.934 51.204-30.497 82.62-40.697 1.632-.816 3.162-1.326 4.59-1.53 1.43-.204 2.958-.714 4.593-1.53-3.266-6.936-6.527-13.668-9.79-20.196-3.268-6.528-6.53-13.26-9.793-20.196-30.192 8.976-59.568 15.81-88.128 20.502s-54.163 8.058-76.807 10.098c-22.644 2.04-41.412 3.162-56.304 3.366s-23.768.306-26.624.306v7.344c0 31.008 5.508 60.18 16.524 87.516s26.11 51.816 45.286 73.44zM46.512 233.172c2.448 0 10.2-.102 23.256-.306s29.58-1.224 49.572-3.06 42.942-4.794 68.85-8.874 52.938-9.792 81.09-17.136c-10.2-17.544-20.298-34.272-30.294-50.184s-19.074-30.09-27.234-42.534c-8.16-12.444-15.096-22.746-20.808-30.906s-9.384-13.464-11.016-15.912c-34.272 15.912-63.138 38.658-86.598 68.238s-39.066 63.138-46.818 100.674zM225.828 48.348c1.632 2.04 5.406 7.14 11.322 15.3s13.056 18.564 21.42 31.212c8.364 12.648 17.544 27.03 27.54 43.146 9.996 16.116 19.893 33.15 29.685 51.102 21.216-7.752 39.576-16.422 55.08-26.01s28.354-18.666 38.556-27.234 17.854-15.912 22.95-22.032c5.1-6.12 8.263-9.996 9.487-11.628-21.624-19.176-46.002-34.068-73.137-44.676-27.132-10.608-55.998-15.912-86.598-15.912-18.768 0-37.536 2.244-56.304 6.732zm242.964 82.008c-1.227 1.632-4.794 5.814-10.71 12.546-5.916 6.732-14.28 14.688-25.092 23.868-10.813 9.18-24.378 18.972-40.698 29.376s-35.7 20.094-58.143 29.07c2.855 5.712 5.61 11.526 8.264 17.442 2.65 5.916 5.202 11.73 7.647 17.442.817 2.04 1.735 4.08 2.755 6.12 1.02 2.04 1.938 4.08 2.757 6.12 19.99-2.448 39.573-3.468 58.752-3.06 19.176.408 36.516 1.326 52.02 2.754s28.356 3.06 38.556 4.896 16.32 2.958 18.36 3.366c-.408-28.56-5.304-55.488-14.688-80.784s-22.644-48.348-39.78-69.156z"/></svg>