<svg xmlns="http://www.w3.org/2000/svg" width="19" height="31" viewBox="0 0 19 31"><defs><style>.cls-1 { fill: #1f1f1f; fill-rule: evenodd; opacity: 0.2; }</style></defs><path id="leaf" class="cls-1" d="M15.73 6.99a9.32 9.32 0 0 1-3.92-1.09 16.455 16.455 0 0 1-2.25 3.6l.06.06a4.934 4.934 0 0 1 1.4-.15 2.308 2.308 0 0 1 1.94 2.46c0 2.25-2 4.27-3.78 6.41-2.03 2.48-2.85 3.98-2.85 6.53 0 2.65 1.81 4.95 3.95 4.95a3.823 3.823 0 0 0 3.74-3.8 2.957 2.957 0 0 0-.87-2.38.457.457 0 0 1-.17-.64 1.13 1.13 0 0 1 1.03-.76c.98 0 1.46 1.3 1.46 2.34 0 3.41-3.07 6.48-6.12 6.48-3.24 0-4.54-3.16-4.65-4.84C2.33 24.23.61 20.82.61 16.11a11.937 11.937 0 0 1 1.52-5.8c1.13-2.05 2.77-3.3 4.29-3.3a2.778 2.778 0 0 1 2.4 2.1 14.02 14.02 0 0 0 2-3.61c-.99-.57-2.57-1.43-3.61-1.94a7.425 7.425 0 0 0-3.42-.91c-1.43 0-2.03.84-2.03 1.56a1.55 1.55 0 0 0 .51 1.24.44.44 0 0 1 .06.55 1.21 1.21 0 0 1-1.1.8A1.34 1.34 0 0 1 0 5.32a3.822 3.822 0 0 1 1.79-2.71 5.4 5.4 0 0 1 3.08-.95 6.69 6.69 0 0 1 3.21 1.05l.03-.06a1.388 1.388 0 0 1-.24-.75A1.245 1.245 0 0 1 9.13.69 1.807 1.807 0 0 1 10.55 0c.97 0 1.93.86 1.93 2.64a7.4 7.4 0 0 1-.33 2.29 8.7 8.7 0 0 0 3.7 1.22.948.948 0 0 0 1.08-.84 1.212 1.212 0 0 0-.38-.91.518.518 0 0 1-.13-.62 1.29 1.29 0 0 1 1.24-.97A1.426 1.426 0 0 1 19 4.3c0 1.65-1.61 2.69-3.24 2.69h-.03zm-7.56 3.4c-.37 0-1.22.09-2.17 1.45a10.62 10.62 0 0 0-1.87 6.38 9.243 9.243 0 0 0 .46 3.09h.16A9.787 9.787 0 0 1 6 17.12c.84-1.73 1.72-3.2 2-3.87 1.16-2.25.36-2.86.2-2.86h-.03zm1.69-9.22a.975.975 0 0 0-.99 1.02 1.712 1.712 0 0 0 1 1.47c.34.19 1.12.65 1.32.76a7.457 7.457 0 0 0 .11-1.07c0-1.55-.64-2.18-1.41-2.18h-.03z"/></svg>