<svg xmlns="http://www.w3.org/2000/svg" width="151.189" height="115.485" viewBox="0 0 151.189 115.48531"><g fill="#fff" fill-rule="evenodd"><path d="M56.9 0c-5.02 0-16.383.037-24 .016l-.244 1.37c5.672.234 6.776 1.062 6.776 6.964v40.197c0 5.896-1.105 6.73-6.778 6.97l-.398 1.477c2.33.016 6.664 0 10.988 0 3.84 0 8.4-.022 10.99 0l-.27-1.476c-5.675-.24-6.775-1.07-6.775-6.97V8.35c0-5.897 1.098-6.73 6.775-6.73h6.12c10.446 0 12.366 3.578 13.546 14.855h1.292v-.004h.646v.005h-.646v.004h1.943C78.048 5.2 79.965 1.556 90.412 1.556h6.12c5.677 0 6.777.826 6.777 6.728v40.198c0 5.896-1.103 6.724-6.78 6.964l-.274 1.547c2.532.016 7.155 0 10.988 0 4.328 0 8.646-.022 10.99 0l-.402-1.547c-5.672-.24-6.77-1.07-6.77-6.962V8.28c0-5.9 1.098-6.724 6.77-6.964l-.244-1.298H76.22V.02h-1.945V.018C69.185.035 61.915 0 56.9 0zm17.375.018h1.946V.016c-.512.003-1.36 0-1.945.002zM51.287 77.31c-3.172 0-5.484 2.502-5.484 6.466 0 3.78 2.057 6.047 5.582 6.047.97.01 1.907-.312 2.662-.922.146-.154.343-.26.556-.285.333.197.517.58.47.97h.34v-3.372c0-1.25.118-1.4.862-1.46v-.34c-.407.046-1.02.06-1.77.06-.765 0-1.81-.014-2.402-.06v.34c1.432.058 1.725.258 1.725 1.638v1.632c.047.387-.15.754-.49.93-.526.355-1.146.54-1.776.533-2.776 0-4.056-1.817-4.056-5.9 0-3.65 1.49-5.964 3.75-5.964 1.13-.015 2.21.47 2.947 1.324.494.754.792 1.62.854 2.515h.386c0-1.977.017-3.08.07-3.907h-.392c-.067.713-.208 1.035-.427 1.035-.13-.015-.25-.077-.338-.176-.86-.72-1.948-1.104-3.068-1.1zm-18.994.16L28.28 87.763c-.156.694-.666 1.25-1.34 1.48v.34c.423-.038.853-.058 1.273-.054.605 0 1.32.022 1.97.054v-.34c-.975-.025-1.486-.28-1.486-1.02.032-.483.147-.953.344-1.396l.7-1.797h4.11l1.05 2.79c.11.25.18.52.2.795 0 .473-.38.605-1.21.637v.338c.486-.03 1.304-.053 2.184-.053.65 0 1.364.02 1.828.053v-.338c-.583-.078-1.05-.515-1.176-1.09L32.568 77.47h-.275zm89.22.003L117.5 87.77c-.156.694-.667 1.25-1.34 1.474v.344c.424-.04.85-.058 1.278-.053.6 0 1.313.017 1.963.053v-.344c-.972-.02-1.482-.28-1.482-1.02.03-.48.147-.954.344-1.392l.7-1.8h4.106l1.047 2.792c.114.25.183.52.203.797 0 .474-.385.6-1.208.63v.344c.483-.036 1.3-.053 2.18-.053.646 0 1.365.02 1.83.056v-.344c-.585-.078-1.05-.51-1.182-1.082l-4.15-10.697h-.276zm-17.45.076v.007h.003l-.003-.008zm0 .007c-.527.03-1.378.05-2.157.05-.886 0-1.708-.02-2.18-.052v.34c1.155.05 1.378.223 1.378 1.463v8.427c0 1.234-.223 1.41-1.38 1.457v.344c1.673-.052 3.92-.053 4.942-.053 1.14 0 2.745 0 3.9.053-.082-.864-.113-1.75-.113-2.176 0-.548.016-1.037.047-1.39h-.39c-.24 2.363-.666 3.176-2.797 3.176h-1.25c-1.155 0-1.38-.177-1.38-1.41v-8.432c0-1.235.225-1.413 1.38-1.46v-.337zm-39.23-.006v.345c1.155.047 1.38.225 1.38 1.46v8.425c0 1.24-.225 1.412-1.38 1.464v.34c1.67-.054 3.916-.053 4.942-.053 1.142 0 2.747 0 3.903.054-.084-.865-.116-1.75-.116-2.172l-.005-.002c0-.475.016-.92.047-1.222h-.39c-.24 2.244-.66 3.01-2.792 3.01h-1.248c-1.156 0-1.38-.178-1.38-1.41V83.7h1.13c1.48 0 1.5 1.16 1.63 2.25h.39c-.083-1.296-.098-1.858-.098-2.415 0-.25-.01-.5-.01-.812 0-.39.01-.88.057-1.6h-.385c-.136.813-.104 2.24-1.584 2.24h-1.13v-4.01c0-1.233.226-1.41 1.382-1.41h1.416c1.803 0 2.063.665 2.287 2.67h.388c-.036-.35-.05-.702-.05-1.05 0-.392.036-1.215.118-2.012-1.057.053-2.52.054-3.563.054-1.025 0-3.27 0-4.94-.053zm-59.155.003v.344c1.156.047 1.378.223 1.378 1.46v8.247c0 1.245-.222 1.584-1.378 1.636v.34c.375-.033 1.005-.05 1.582-.05.573 0 1.33.017 1.736.05v-.34c-1.323-.052-1.55-.39-1.55-1.636v-8.967l4.3 11.023h.27l4.105-10.97v9.093c0 1.236-.22 1.407-1.374 1.46v.34c.474-.034 1.29-.05 2.182-.05.78 0 1.63.016 2.16.05v-.34c-1.155-.053-1.38-.224-1.38-1.46v-8.425c0-1.235.225-1.41 1.38-1.46v-.345c-.53.036-1.38.05-2.16.05h-.807l-3.66 9.81-3.747-9.86c-.374.036-.953.05-1.453.05-.577 0-1.207-.014-1.582-.05zm76.78.002v.34c1.156.05 1.382.223 1.382 1.463v8.427c0 1.234-.226 1.41-1.38 1.457v.344c1.67-.052 3.914-.053 4.935-.053 1.14 0 2.75 0 3.9.053-.083-.864-.113-1.75-.113-2.176 0-.548.014-1.037.052-1.39h-.39c-.24 2.363-.67 3.176-2.805 3.176h-1.243c-1.16 0-1.385-.177-1.385-1.41v-8.432c0-1.235.224-1.413 1.385-1.46v-.337c-.52.03-1.38.05-2.16.05-.882 0-1.705-.02-2.178-.052zm52.183 0v.34c1.164.05 1.388.223 1.388 1.463v8.244c0 1.245-.224 1.585-1.387 1.637v.338c.377-.033 1.01-.05 1.585-.05.573 0 1.33.017 1.738.05v-.34c-1.324-.05-1.547-.39-1.547-1.636v-8.967l7.156 11.023h.39v-10.13c0-1.24.227-1.583 1.382-1.63v-.34c-.374.03-1.005.05-1.584.05-.572 0-1.328-.022-1.74-.053v.34c1.335.05 1.552.39 1.552 1.635v7.265l-6.015-9.238c-.374.03-.832.05-1.332.05-.573 0-1.208-.02-1.584-.052zM31.817 79.62l1.908 5.068h-3.86l1.952-5.07zm89.22.003l1.907 5.07h-3.86l1.952-5.07zm-53.08 26.272l.003.002c-.62 0-1.435.224-1.435.9 0 .376.314.673.688.647.38.026.703-.26.734-.635-.005-.25-.144-.483-.363-.603.104-.098.25-.14.39-.113.776-.046 1.452.538 1.514 1.314-.073.614-.52 1.114-1.127 1.25-1.04.395-2.102.74-3.174 1.026-1.188.405-1.803 1-1.803 1.896-.01.884.735 1.587 1.615 1.524.735.093 1.412-.395 1.557-1.12.052-.614-.656-1-1.145-.615-.485.384-.27 1.165.344 1.25-.203.207-.496.312-.783.287-.612.025-1.138-.434-1.2-1.043.105-.583.562-1.037 1.146-1.13.348-.13.91-.308 1.5-.5.796.28 1.328 1.04 1.312 1.885 0 1.483-1.585 2.378-3.423 2.378-1.958 0-3.5-1.015-3.5-2.802-.047-1.036.672-1.94 1.693-2.133.297.15.62.25.953.285.173.035.34-.074.364-.246 0-.203-.213-.3-.525-.3-.27.002-.537.03-.808.075-.427-.37-.672-.908-.66-1.478-.084-.87.635-1.61 1.51-1.552.38-.058.765.103.99.42-.38.017-.688.33-.693.71-.006.376.306.675.68.655.397.015.725-.295.73-.69-.02-.356-.197-.685-.48-.898-.394-.287-.873-.422-1.36-.39-1.446 0-2.196.78-2.196 1.625.058.772.574 1.43 1.312 1.67-1.344.27-2.334 1.413-2.406 2.78 0 2 1.964 3.23 4.22 3.23 2.514 0 3.977-1.535 3.977-3.108.046-.963-.524-1.85-1.425-2.197.656-.192 1.3-.417 1.93-.684.74-.305 1.226-1.018 1.242-1.815.01-1.03-.87-1.85-1.897-1.76zm65.015 0c-2.424 0-4.194 1.91-4.194 4.943 0 2.895 1.572 4.63 4.27 4.63.74.002 1.463-.246 2.036-.71.113-.12.266-.198.428-.22.255.152.396.444.36.74h.26V112.7c0-.957.09-1.07.66-1.114v-.26c-.312.032-.777.04-1.352.04-.573 0-1.385-.008-1.844-.04v.26c1.1.043 1.318.2 1.318 1.25v1.25c.035.292-.11.572-.377.71-.4.27-.868.41-1.35.405-2.127 0-3.107-1.388-3.107-4.508 0-2.792 1.134-4.563 2.87-4.563.863-.01 1.687.36 2.25 1.015.38.574.61 1.234.656 1.922h.3c0-1.51.012-2.356.053-2.99h-.3c-.054.546-.164.79-.325.79-.105-.008-.19-.056-.265-.128-.656-.553-1.49-.85-2.344-.845h-.002zm-128.83.002c-2.42 0-4.14 1.952-4.14 4.863 0 2.975 1.657 4.71 4.13 4.71.876 0 1.73-.298 2.41-.845.08-.062.173-.097.272-.11.183 0 .273.237.32.767h.296c-.036-.655-.053-1.547-.053-3.122H7.08c-.007.73-.216 1.44-.6 2.053-.548.662-1.376 1.033-2.23.996-1.682 0-2.947-1.605-2.947-4.5 0-2.824 1.12-4.58 2.818-4.58.886-.036 1.735.342 2.3 1.017.403.563.632 1.236.66 1.924h.295c0-1.51.017-2.355.053-2.99H7.13c-.045.537-.157.778-.333.778-.094-.01-.182-.05-.256-.116-.67-.563-1.524-.86-2.4-.843v-.003zm14.188 0c-2.427 0-4.14 1.952-4.14 4.863 0 2.975 1.65 4.71 4.13 4.71 2.422 0 4.14-1.96 4.14-4.866.007-2.973-1.65-4.707-4.124-4.707h-.006zm91.29.035c-1.327-.135-2.48.923-2.452 2.256 0 1.463 1.084 2.172 2.322 2.91 1.207.725 2.03 1.323 2.03 2.375.084.975-.717 1.79-1.692 1.734-1.667 0-2.265-1.38-2.375-2.953h-.296c0 1.833-.016 2.585-.052 3.115h.297c.052-.376.127-.57.288-.57.167.015.316.085.447.183.53.345 1.15.51 1.78.484 1.48.175 2.78-.98 2.773-2.47 0-1.4-.997-2.082-2.352-2.926-1.17-.73-2.19-1.202-2.19-2.378-.015-.876.72-1.573 1.592-1.51 1.443 0 2.04 1.26 2.14 2.5h.298c0-1.636.025-2.194.062-2.652h-.296c-.052.377-.12.57-.288.57-.167-.016-.316-.08-.447-.184-.457-.338-1.02-.51-1.588-.484zm-66.268.146v.26c.885.035 1.056.17 1.056 1.113v6.457c0 .942-.17 1.076-1.056 1.113v.26c1.275-.035 3-.036 3.78-.036.87 0 2.098.002 2.983.038-.063-.655-.088-1.338-.088-1.66h.002c0-.36.01-.7.035-.938h-.302c-.18 1.718-.505 2.297-2.135 2.297h-.953c-.885 0-1.057-.13-1.057-1.08v-3.12h.863c1.135 0 1.146.887 1.245 1.72h.302c-.063-.99-.08-1.42-.08-1.85 0-.185-.004-.38-.004-.62 0-.3.007-.67.048-1.223h-.303c-.1.62-.08 1.715-1.21 1.715h-.862v-3.07c0-.94.173-1.077 1.053-1.077h1.084c1.38 0 1.578.51 1.75 2.043h.303c-.032-.266-.043-.537-.043-.802 0-.303.025-.927.093-1.536-.814.035-1.932.036-2.722.036-.796 0-2.5-.002-3.78-.038zm35.795 0v.26c.886.04 1.056.17 1.056 1.12v6.45c0 .94-.17 1.075-1.055 1.112v.26c.366-.025 1.01-.036 1.62-.036.557 0 1.432.038 1.823.038 2.688.23 4.94-2.012 4.72-4.698 0-2.9-1.497-4.504-4.6-4.504-.5 0-1.372.023-1.97.04-.11 0-.208.005-.318.005-.483 0-.972-.027-1.275-.047zm14.533 0v.26c.886.035 1.058.17 1.058 1.113v6.455c0 .942-.172 1.078-1.058 1.115v.26c1.282-.035 3-.036 3.78-.036.874 0 2.1 0 2.985.036-.063-.655-.087-1.338-.087-1.66h-.002c-.006-.314.01-.624.037-.936h-.296c-.186 1.718-.51 2.295-2.14 2.295H97c-.885 0-1.057-.13-1.057-1.08v-3.12h.864c1.13 0 1.146.885 1.25 1.718h.3c-.064-.99-.076-1.42-.076-1.85 0-.185-.008-.378-.008-.618 0-.3.01-.67.046-1.223h-.3c-.1.62-.08 1.713-1.21 1.713h-.865v-3.067c0-.942.172-1.078 1.057-1.078h1.084c1.38 0 1.577.51 1.75 2.04h.3c-.027-.265-.043-.534-.038-.8 0-.302.027-.928.09-1.537-.808.035-1.93.036-2.725.036-.8 0-2.5 0-3.782-.036zm25.408 0v.26c.885.04 1.053.17 1.053 1.12v6.45c0 .94-.17 1.075-1.054 1.112v.26c.36-.025.99-.036 1.668-.036.6 0 1.255.012 1.656.038v-.26c-.885-.036-1.056-.17-1.056-1.113v-6.45c0-.95.17-1.08 1.056-1.12v-.262c-.4.024-1.056.04-1.656.04-.676 0-1.303-.016-1.668-.04zm23.918 0v.26c.88.04 1.053.17 1.053 1.12v6.312c0 .954-.173 1.214-1.053 1.25v.26c.282-.025.765-.036 1.207-.036.44 0 1.017.01 1.33.036v-.26c-1.01-.036-1.18-.296-1.18-1.25v-6.858l5.472 8.432h.3v-7.756c0-.948.173-1.208 1.058-1.25l-.002-.26c-.287.024-.77.04-1.21.04-.443 0-1.02-.016-1.333-.04v.26c1.022.04 1.18.3 1.18 1.248v5.563l-4.598-7.072c-.285.024-.636.04-1.016.04-.44 0-.924-.016-1.206-.04zm-114.188.002v.26c.886.04 1.06.17 1.06 1.12v6.447c0 .942-.174 1.078-1.06 1.115v.26c.366-.025 1-.036 1.62-.036.56 0 1.433.036 1.824.036 2.688.23 4.937-2.01 4.72-4.696 0-2.9-1.496-4.505-4.603-4.506h-.002c-.5 0-1.365.025-1.963.04-.11 0-.21.005-.32.005-.483 0-.973-.025-1.276-.045zm-10.54.05h.005c1.598.005 2.876 1.764 2.876 4.527 0 2.693-1.105 4.58-2.793 4.58-1.6 0-2.88-1.763-2.88-4.528.006-2.69 1.1-4.574 2.792-4.58zm13.777.183c2.703 0 3.62 1.4 3.62 4.32 0 2.832-.766 4.414-3.605 4.414-.813 0-.984-.206-.984-1.113v-6.5c0-.896.17-1.12.97-1.12zm50.326 0c2.703 0 3.624 1.398 3.624 4.318 0 2.833-.77 4.417-3.61 4.417-.806 0-.984-.208-.984-1.115v-6.5c0-.896.177-1.12.97-1.12z"/><path d="M19.088 77.552c-.53.036-1.38.052-2.16.052h-.808l-3.66 9.808-3.747-9.86c-.374.036-.953.052-1.453.052-.577 0-1.208-.016-1.583-.052v.344c1.156.047 1.38.224 1.38 1.46v8.248c0 1.245-.224 1.584-1.38 1.636v.34c.375-.033 1.006-.05 1.583-.05.573 0 1.328.017 1.735.05v-.34c-1.323-.052-1.547-.39-1.547-1.636v-8.968l4.297 11.025h.27l4.105-10.97v9.093c0 1.236-.22 1.408-1.375 1.46v.34c.474-.033 1.29-.05 2.182-.05.78 0 1.63.017 2.16.05v-.34c-1.155-.052-1.38-.224-1.38-1.46v-8.425c0-1.235.225-1.412 1.38-1.46zm13.48-.083h-.276l-4.01 10.294c-.157.694-.667 1.25-1.34 1.48v.34c.422-.038.85-.058 1.27-.054.605 0 1.32.022 1.97.054v-.34c-.974-.025-1.485-.28-1.485-1.02.032-.484.147-.953.344-1.396l.7-1.797h4.11l1.05 2.788c.11.25.18.522.2.798 0 .473-.38.604-1.21.636v.338c.486-.03 1.304-.052 2.184-.052.65 0 1.364.02 1.828.052v-.337c-.583-.078-1.05-.515-1.176-1.09zm1.156 7.217h-3.86l1.953-5.068zm17.563-7.376c-3.172 0-5.484 2.5-5.484 6.465 0 3.78 2.057 6.047 5.582 6.047.97.01 1.907-.312 2.662-.922.146-.155.344-.26.557-.285.333.197.516.582.47.97h.338v-3.372c0-1.25.12-1.4.864-1.458v-.343c-.407.047-1.02.06-1.77.06-.766 0-1.81-.013-2.402-.06v.343c1.432.057 1.724.256 1.724 1.636v1.63c.047.388-.15.757-.49.934-.526.354-1.145.536-1.775.53-2.776 0-4.058-1.816-4.058-5.9 0-3.65 1.49-5.963 3.75-5.963 1.13-.015 2.21.47 2.948 1.324.494.754.792 1.62.854 2.516h.386c0-1.976.016-3.08.068-3.908h-.39c-.067.713-.207 1.036-.426 1.036-.13-.015-.25-.077-.338-.176-.86-.72-1.948-1.105-3.068-1.1zm22.27 10.1c0-.474.016-.922.047-1.223h-.39c-.24 2.244-.662 3.01-2.793 3.01h-1.247c-1.156 0-1.38-.177-1.38-1.41v-4.085h1.13c1.48 0 1.5 1.16 1.63 2.25h.39c-.082-1.297-.098-1.86-.098-2.417 0-.25-.01-.5-.01-.812 0-.39.01-.88.057-1.6h-.385c-.136.813-.104 2.24-1.584 2.24h-1.128v-4.01c0-1.234.224-1.41 1.38-1.41h1.416c1.804 0 2.064.665 2.288 2.67h.39c-.036-.35-.052-.702-.052-1.05 0-.392.038-1.215.12-2.012-1.057.053-2.52.053-3.562.053-1.025 0-3.27 0-4.942-.052v.345c1.156.047 1.38.224 1.38 1.46v8.425c0 1.24-.224 1.413-1.38 1.465v.34c1.672-.054 3.917-.054 4.943-.054 1.142 0 2.746 0 3.902.055-.084-.865-.115-1.75-.115-2.172zm13.24-9.854c-.52.03-1.38.052-2.16.052-.882 0-1.705-.022-2.178-.053v.34c1.154.05 1.38.223 1.38 1.463v8.427c0 1.234-.226 1.41-1.38 1.458v.343c1.67-.052 3.914-.052 4.935-.052 1.14 0 2.75 0 3.9.052-.083-.864-.113-1.75-.113-2.176 0-.548.014-1.037.052-1.39h-.39c-.24 2.363-.668 3.175-2.804 3.175h-1.243c-1.16 0-1.385-.176-1.385-1.41v-8.432c0-1.235.224-1.412 1.385-1.46v-.343zm17.27 0c-.526.03-1.38.052-2.16.052-.886 0-1.71-.022-2.183-.053v.34c1.156.05 1.38.223 1.38 1.463v8.427c0 1.234-.224 1.41-1.38 1.458v.343c1.672-.052 3.92-.052 4.943-.052 1.14 0 2.745 0 3.9.052-.083-.864-.114-1.75-.114-2.176 0-.548.016-1.037.047-1.39h-.39c-.24 2.363-.667 3.175-2.798 3.175h-1.25c-1.155 0-1.38-.176-1.38-1.41v-8.432c0-1.235.225-1.412 1.38-1.46v-.343zm17.72-.084h-.276L117.5 87.77c-.156.694-.667 1.25-1.34 1.475v.343c.424-.04.85-.057 1.277-.052.6 0 1.314.016 1.964.052v-.343c-.972-.02-1.482-.28-1.482-1.02.03-.48.146-.954.343-1.392l.7-1.802h4.11l1.046 2.794c.114.25.182.52.202.797 0 .474-.385.6-1.208.63v.344c.483-.036 1.302-.052 2.182-.052.645 0 1.364.017 1.828.053v-.342c-.584-.078-1.052-.51-1.183-1.083zm1.156 7.22h-3.86l1.953-5.068zm22.4-7.136c-.374.03-1.004.052-1.583.052-.572 0-1.328-.022-1.74-.053v.34c1.335.05 1.553.39 1.553 1.634v7.266l-6.016-9.24c-.374.03-.833.052-1.333.052-.573 0-1.208-.022-1.584-.053v.34c1.163.05 1.387.223 1.387 1.463v8.244c0 1.245-.224 1.584-1.387 1.636v.34c.376-.033 1.01-.05 1.584-.05.573 0 1.333.017 1.74.05v-.34c-1.324-.052-1.547-.39-1.547-1.636v-8.968l7.156 11.025h.39V79.527c0-1.24.225-1.584 1.38-1.63v-.345zM4.14 105.896c-2.42 0-4.14 1.953-4.14 4.864 0 2.975 1.656 4.71 4.13 4.71.875 0 1.73-.298 2.41-.845.08-.062.173-.098.272-.11.183 0 .272.236.32.766h.295c-.036-.654-.052-1.544-.052-3.12H7.08c-.007.73-.216 1.44-.6 2.054-.548.662-1.376 1.032-2.23.995-1.682 0-2.947-1.605-2.947-4.5 0-2.824 1.118-4.578 2.817-4.578.885-.037 1.735.34 2.3 1.015.403.563.632 1.235.66 1.923h.295c0-1.51.016-2.355.052-2.99H7.13c-.046.537-.157.777-.333.777-.094-.01-.182-.048-.256-.115-.67-.563-1.523-.86-2.4-.844zm14.188 0c-2.427 0-4.14 1.953-4.14 4.864 0 2.975 1.65 4.71 4.13 4.71 2.422 0 4.14-1.96 4.14-4.866.006-2.973-1.65-4.708-4.125-4.708zm-.052.235c1.6 0 2.88 1.76 2.88 4.527 0 2.693-1.104 4.58-2.792 4.58-1.6 0-2.88-1.763-2.88-4.528.005-2.693 1.1-4.578 2.797-4.578zm14.1-.05c-.5 0-1.365.025-1.964.04-.11 0-.21.006-.32.006-.483 0-.972-.026-1.275-.046v.26c.886.04 1.058.17 1.058 1.12v6.447c0 .942-.172 1.077-1.058 1.114v.26c.366-.024 1-.034 1.62-.034.558 0 1.432.036 1.823.036 2.688.23 4.937-2.01 4.72-4.696 0-2.9-1.496-4.505-4.605-4.505zm-.324.233c2.703 0 3.62 1.4 3.62 4.32 0 2.832-.765 4.415-3.604 4.415-.813 0-.984-.208-.984-1.115v-6.5c0-.896.17-1.12.968-1.12zm17.975 7.308c0-.36.01-.7.036-.936h-.303c-.18 1.718-.505 2.296-2.135 2.296h-.953c-.885 0-1.057-.13-1.057-1.08v-3.12h.864c1.134 0 1.144.887 1.243 1.72h.303c-.063-.99-.08-1.42-.08-1.85 0-.186-.004-.38-.004-.62 0-.3.005-.67.046-1.223h-.302c-.1.62-.08 1.714-1.21 1.714h-.863v-3.066c0-.942.172-1.078 1.052-1.078h1.084c1.38 0 1.577.51 1.75 2.042h.302c-.032-.266-.043-.537-.043-.802 0-.303.026-.927.094-1.536-.814.035-1.934.035-2.724.035-.797 0-2.5 0-3.78-.036v.26c.885.034 1.057.17 1.057 1.112v6.454c0 .942-.172 1.077-1.058 1.114v.26c1.274-.035 3-.035 3.78-.035.87 0 2.1 0 2.984.036-.063-.654-.088-1.336-.088-1.66zm17.932-7.723c-.62 0-1.434.224-1.434.9 0 .376.312.673.686.647.38.026.704-.26.735-.636-.005-.25-.145-.48-.364-.6.104-.098.25-.14.39-.114.777-.046 1.453.538 1.515 1.314-.073.614-.52 1.114-1.126 1.25-1.04.395-2.104.74-3.176 1.026-1.188.405-1.803 1-1.803 1.896-.01.884.735 1.587 1.615 1.524.735.093 1.412-.396 1.557-1.12.052-.615-.656-1-1.145-.615-.485.384-.272 1.165.343 1.25-.203.207-.495.31-.782.286-.612.025-1.14-.434-1.2-1.043.104-.583.562-1.036 1.146-1.13.348-.13.91-.307 1.5-.5.796.282 1.328 1.042 1.312 1.886 0 1.483-1.585 2.38-3.423 2.38-1.958 0-3.5-1.017-3.5-2.804-.047-1.036.672-1.942 1.693-2.134.297.15.62.25.953.286.173.035.34-.074.365-.246 0-.203-.213-.3-.525-.3-.27.003-.537.03-.808.076-.427-.37-.672-.91-.66-1.48-.084-.87.635-1.608 1.51-1.55.38-.058.765.103.99.42-.38.017-.688.33-.693.71-.006.375.306.676.68.656.397.015.725-.297.73-.693-.02-.354-.197-.682-.48-.895-.394-.287-.873-.422-1.36-.39-1.446 0-2.196.78-2.196 1.624.058.77.574 1.432 1.312 1.672-1.344.27-2.333 1.41-2.405 2.776 0 2 1.964 3.234 4.22 3.234 2.514 0 3.978-1.537 3.978-3.11.046-.963-.526-1.85-1.427-2.198.657-.192 1.3-.416 1.933-.683.74-.305 1.224-1.02 1.24-1.816.01-1.03-.87-1.85-1.896-1.76zm14.747.183c-.5 0-1.37.024-1.968.04-.11 0-.21.005-.32.005-.484 0-.973-.026-1.276-.046v.26c.886.04 1.058.17 1.058 1.12v6.446c0 .942-.172 1.077-1.058 1.114v.26c.366-.025 1.01-.035 1.62-.035.558 0 1.432.036 1.823.036 2.688.23 4.94-2.01 4.72-4.695 0-2.9-1.496-4.505-4.6-4.505zm-.328.232c2.703 0 3.624 1.4 3.624 4.32 0 2.832-.77 4.415-3.61 4.415-.807 0-.983-.208-.983-1.115v-6.5c0-.896.177-1.12.97-1.12zm17.974 7.308c-.005-.313.01-.625.036-.937h-.297c-.186 1.718-.51 2.296-2.14 2.296H97c-.885 0-1.057-.13-1.057-1.08v-3.12h.864c1.13 0 1.146.886 1.25 1.72h.298c-.063-.99-.074-1.42-.074-1.85 0-.187-.01-.38-.01-.62 0-.3.01-.67.048-1.224h-.3c-.1.62-.08 1.714-1.21 1.714h-.864v-3.067c0-.942.172-1.078 1.057-1.078h1.085c1.38 0 1.577.51 1.75 2.042h.297c-.026-.266-.042-.537-.037-.802 0-.303.027-.927.09-1.536-.808.034-1.928.034-2.724.034-.8 0-2.5 0-3.782-.036v.26c.886.035 1.058.17 1.058 1.113v6.455c0 .942-.172 1.077-1.058 1.114v.26c1.282-.036 3-.036 3.782-.036.873 0 2.097 0 2.983.036-.063-.655-.088-1.337-.088-1.66zm9.265-7.688c-1.33-.135-2.48.923-2.454 2.256 0 1.463 1.084 2.172 2.322 2.91 1.207.725 2.03 1.323 2.03 2.375.084.975-.717 1.792-1.692 1.735-1.667 0-2.265-1.38-2.375-2.953h-.296c0 1.833-.016 2.584-.052 3.114h.297c.052-.376.126-.568.287-.568.167.014.317.082.448.18.53.345 1.15.512 1.78.486 1.48.175 2.78-.98 2.772-2.47 0-1.4-.995-2.083-2.35-2.927-1.17-.73-2.193-1.203-2.193-2.38-.014-.875.724-1.572 1.595-1.51 1.442 0 2.04 1.26 2.14 2.5h.296c0-1.635.026-2.193.063-2.65h-.298c-.052.376-.12.57-.287.57-.167-.017-.317-.08-.448-.184-.457-.338-1.02-.51-1.588-.485zm12.79.147c-.4.023-1.056.04-1.656.04-.676 0-1.302-.017-1.667-.04v.26c.885.04 1.052.17 1.052 1.12v6.446c0 .942-.168 1.077-1.053 1.114v.26c.36-.025.99-.035 1.667-.035.6 0 1.256.01 1.657.036v-.26c-.884-.035-1.056-.17-1.056-1.112v-6.448c0-.95.172-1.08 1.057-1.12zm10.56-.185c-2.424 0-4.195 1.91-4.195 4.943 0 2.895 1.573 4.63 4.27 4.63.74.003 1.465-.246 2.038-.71.113-.12.265-.197.427-.22.255.153.397.444.36.74h.26V112.7c0-.957.09-1.07.662-1.114v-.26c-.313.032-.78.04-1.355.04-.573 0-1.385-.008-1.844-.04v.26c1.1.043 1.32.2 1.32 1.25v1.25c.035.292-.11.573-.377.71-.4.27-.87.41-1.353.405-2.126 0-3.104-1.39-3.104-4.51 0-2.79 1.132-4.56 2.867-4.56.864-.01 1.688.36 2.25 1.014.38.574.61 1.235.657 1.923h.3c0-1.51.012-2.355.053-2.99h-.3c-.053.547-.163.79-.324.79-.105-.008-.193-.056-.267-.128-.656-.553-1.49-.85-2.344-.845zm18.217.183c-.287.024-.77.04-1.21.04-.442 0-1.02-.016-1.333-.04v.26c1.022.04 1.183.3 1.183 1.248v5.563l-4.6-7.07c-.285.023-.635.04-1.015.04-.442 0-.926-.017-1.208-.04v.26c.88.04 1.052.17 1.052 1.12v6.31c0 .953-.172 1.213-1.052 1.25v.26c.282-.026.766-.036 1.208-.036.438 0 1.016.01 1.328.036v-.26c-1.01-.036-1.18-.296-1.18-1.25v-6.858l5.473 8.432h.298v-7.756c0-.948.174-1.208 1.06-1.25z"/></g></svg>