<?xml version="1.0" encoding="UTF-8" standalone="no"?>
<!-- Created with Inkscape (http://www.inkscape.org/) -->

<svg
   xmlns:dc="http://purl.org/dc/elements/1.1/"
   xmlns:cc="http://creativecommons.org/ns#"
   xmlns:rdf="http://www.w3.org/1999/02/22-rdf-syntax-ns#"
   xmlns:svg="http://www.w3.org/2000/svg"
   xmlns="http://www.w3.org/2000/svg"
   xmlns:sodipodi="http://sodipodi.sourceforge.net/DTD/sodipodi-0.dtd"
   xmlns:inkscape="http://www.inkscape.org/namespaces/inkscape"
   width="40.00209mm"
   height="36.640938mm"
   viewBox="0 0 40.00209 36.640938"
   version="1.1"
   id="svg1510"
   inkscape:version="0.92.3 (2405546, 2018-03-11)"
   sodipodi:docname="magellan-brand.svg">
  <defs
     id="defs1504" />
  <sodipodi:namedview
     id="base"
     pagecolor="#ffffff"
     bordercolor="#666666"
     borderopacity="1.0"
     inkscape:pageopacity="0.0"
     inkscape:pageshadow="2"
     inkscape:zoom="2.8"
     inkscape:cx="35.82201"
     inkscape:cy="116.85195"
     inkscape:document-units="mm"
     inkscape:current-layer="layer1"
     showgrid="false"
     inkscape:window-width="1920"
     inkscape:window-height="1027"
     inkscape:window-x="-8"
     inkscape:window-y="22"
     inkscape:window-maximized="1" />
  <metadata
     id="metadata1507">
    <rdf:RDF>
      <cc:Work
         rdf:about="">
        <dc:format>image/svg+xml</dc:format>
        <dc:type
           rdf:resource="http://purl.org/dc/dcmitype/StillImage" />
        <dc:title />
      </cc:Work>
    </rdf:RDF>
  </metadata>
  <g
     inkscape:label="Layer 1"
     inkscape:groupmode="layer"
     id="layer1"
     transform="translate(-122.87395,-147.89976)">
    <g
       id="g1483"
       transform="matrix(0.26458333,0,0,0.26458333,107.32783,141.28624)">
      <g
         id="branding">
        <g
           id="CLAIM">
          <path
             transform="translate(-291,-142)"
             d="m 353.9,272.892 c -2.425,0 -4.143,1.955 -4.143,4.862 0,2.976 1.655,4.709 4.13,4.709 a 3.82,3.82 0 0 0 2.413,-0.844 0.542,0.542 0 0 1 0.267,-0.108 c 0.185,0 0.274,0.234 0.318,0.768 h 0.3 c -0.038,-0.66 -0.051,-1.549 -0.051,-3.123 h -0.3 a 3.873,3.873 0 0 1 -0.6,2.056 2.739,2.739 0 0 1 -2.228,0.99 c -1.68,0 -2.947,-1.6 -2.947,-4.5 0,-2.818 1.12,-4.576 2.82,-4.576 a 2.837,2.837 0 0 1 2.3,1.016 3.55,3.55 0 0 1 0.655,1.923 h 0.3 c 0,-1.511 0.013,-2.355 0.051,-2.99 h -0.3 c -0.044,0.534 -0.152,0.775 -0.331,0.775 a 0.421,0.421 0 0 1 -0.254,-0.115 3.649,3.649 0 0 0 -2.4,-0.843 z m 14.185,0 c -2.425,0 -4.143,1.955 -4.143,4.862 0,2.976 1.655,4.709 4.131,4.709 2.425,0 4.143,-1.955 4.143,-4.862 0.004,-2.976 -1.651,-4.709 -4.127,-4.709 z m -0.051,0.235 c 1.6,0 2.877,1.758 2.877,4.525 0,2.691 -1.1,4.576 -2.788,4.576 -1.6,0 -2.883,-1.758 -2.883,-4.525 0.004,-2.691 1.099,-4.576 2.798,-4.576 z m 14.1,-0.051 c -0.5,0 -1.368,0.026 -1.966,0.039 -0.108,0 -0.21,0.006 -0.318,0.006 -0.484,0 -0.974,-0.025 -1.273,-0.045 v 0.261 c 0.884,0.038 1.056,0.171 1.056,1.117 v 6.446 c 0,0.946 -0.172,1.079 -1.056,1.117 v 0.261 c 0.362,-0.026 1,-0.039 1.616,-0.039 0.56,0 1.432,0.039 1.827,0.039 a 4.36,4.36 0 0 0 4.716,-4.7 c 0,-2.902 -1.496,-4.502 -4.602,-4.502 z m -0.324,0.235 c 2.7,0 3.621,1.4 3.621,4.316 0,2.83 -0.77,4.417 -3.608,4.417 -0.809,0 -0.981,-0.21 -0.981,-1.117 v -6.5 c 0,-0.894 0.172,-1.116 0.968,-1.116 z m 17.972,7.305 c 0,-0.362 0.013,-0.7 0.038,-0.939 h -0.3 c -0.184,1.719 -0.509,2.3 -2.138,2.3 h -0.955 c -0.885,0 -1.057,-0.133 -1.057,-1.079 v -3.122 h 0.866 c 1.133,0 1.146,0.889 1.247,1.72 h 0.3 c -0.064,-0.99 -0.077,-1.422 -0.077,-1.847 0,-0.19 -0.006,-0.381 -0.006,-0.622 0,-0.3 0.006,-0.673 0.044,-1.225 h -0.3 c -0.1,0.622 -0.076,1.714 -1.209,1.714 h -0.866 v -3.065 c 0,-0.946 0.172,-1.079 1.057,-1.079 h 1.082 c 1.381,0 1.578,0.507 1.75,2.043 h 0.3 a 7.068,7.068 0 0 1 -0.038,-0.806 c 0,-0.3 0.026,-0.926 0.089,-1.536 -0.808,0.039 -1.928,0.039 -2.724,0.039 -0.796,0 -2.5,0 -3.781,-0.039 v 0.261 c 0.885,0.038 1.057,0.171 1.057,1.117 v 6.449 c 0,0.946 -0.172,1.079 -1.057,1.117 v 0.261 c 1.28,-0.039 3,-0.039 3.781,-0.039 0.872,0 2.1,0 2.985,0.039 -0.062,-0.659 -0.088,-1.339 -0.088,-1.662 z m 17.935,-7.724 c -0.624,0 -1.433,0.223 -1.433,0.9 a 0.644,0.644 0 0 0 0.688,0.647 0.688,0.688 0 0 0 0.732,-0.635 0.7,0.7 0 0 0 -0.363,-0.6 0.443,0.443 0 0 1 0.388,-0.114 1.431,1.431 0 0 1 1.515,1.314 1.448,1.448 0 0 1 -1.12,1.25 33,33 0 0 1 -3.182,1.022 c -1.184,0.406 -1.8,1 -1.8,1.9 a 1.512,1.512 0 0 0 1.617,1.523 1.4,1.4 0 0 0 1.553,-1.117 0.706,0.706 0 1 0 -0.8,0.635 0.971,0.971 0 0 1 -0.783,0.286 1.157,1.157 0 0 1 -1.2,-1.041 1.387,1.387 0 0 1 1.146,-1.13 c 0.35,-0.133 0.91,-0.311 1.5,-0.5 a 1.966,1.966 0 0 1 1.311,1.885 c 0,1.485 -1.585,2.38 -3.424,2.38 -1.954,0 -3.5,-1.015 -3.5,-2.805 a 2.076,2.076 0 0 1 1.693,-2.132 2.793,2.793 0 0 0 0.955,0.285 0.3,0.3 0 0 0 0.363,-0.247 c 0,-0.2 -0.21,-0.3 -0.522,-0.3 a 5.761,5.761 0 0 0 -0.808,0.077 1.911,1.911 0 0 1 -0.662,-1.479 1.417,1.417 0 0 1 1.508,-1.549 1.035,1.035 0 0 1 0.993,0.419 0.724,0.724 0 0 0 -0.694,0.711 0.647,0.647 0 0 0 0.681,0.654 0.706,0.706 0 0 0 0.732,-0.692 1.2,1.2 0 0 0 -0.484,-0.895 2.07,2.07 0 0 0 -1.355,-0.393 c -1.451,0 -2.2,0.78 -2.2,1.624 a 1.914,1.914 0 0 0 1.311,1.676 3,3 0 0 0 -2.406,2.773 c 0,2 1.967,3.237 4.22,3.237 2.514,0 3.978,-1.536 3.978,-3.11 a 2.234,2.234 0 0 0 -1.426,-2.2 18,18 0 0 0 1.935,-0.679 2.017,2.017 0 0 0 1.235,-1.822 1.744,1.744 0 0 0 -1.892,-1.758 z m 14.746,0.184 c -0.5,0 -1.369,0.026 -1.967,0.039 -0.108,0 -0.21,0.006 -0.318,0.006 -0.484,0 -0.974,-0.025 -1.273,-0.045 v 0.261 c 0.885,0.038 1.057,0.171 1.057,1.117 v 6.446 c 0,0.946 -0.172,1.079 -1.057,1.117 v 0.261 c 0.363,-0.026 1.006,-0.039 1.617,-0.039 0.56,0 1.432,0.039 1.826,0.039 a 4.361,4.361 0 0 0 4.717,-4.7 c 0,-2.902 -1.496,-4.502 -4.602,-4.502 z m -0.325,0.235 c 2.7,0 3.622,1.4 3.622,4.316 0,2.83 -0.77,4.417 -3.609,4.417 -0.808,0 -0.98,-0.21 -0.98,-1.117 v -6.5 c 0,-0.894 0.172,-1.116 0.967,-1.116 z m 17.973,7.305 a 9.358,9.358 0 0 1 0.038,-0.939 h -0.3 c -0.185,1.719 -0.51,2.3 -2.139,2.3 h -0.955 c -0.884,0 -1.056,-0.133 -1.056,-1.079 v -3.122 h 0.865 c 1.133,0 1.146,0.889 1.248,1.72 h 0.3 c -0.064,-0.99 -0.076,-1.422 -0.076,-1.847 0,-0.19 -0.007,-0.381 -0.007,-0.622 0,-0.3 0.007,-0.673 0.045,-1.225 h -0.3 c -0.1,0.622 -0.077,1.714 -1.21,1.714 H 445.7 v -3.065 c 0,-0.946 0.172,-1.079 1.056,-1.079 h 1.082 c 1.381,0 1.579,0.507 1.751,2.043 h 0.3 a 6.843,6.843 0 0 1 -0.038,-0.806 c 0,-0.3 0.025,-0.926 0.089,-1.536 -0.809,0.039 -1.929,0.039 -2.724,0.039 -0.795,0 -2.5,0 -3.781,-0.039 v 0.261 c 0.885,0.038 1.056,0.171 1.056,1.117 v 6.449 c 0,0.946 -0.171,1.079 -1.056,1.117 v 0.261 c 1.279,-0.039 3,-0.039 3.781,-0.039 0.872,0 2.1,0 2.985,0.039 -0.065,-0.659 -0.09,-1.339 -0.09,-1.662 z m 9.264,-7.686 a 2.221,2.221 0 0 0 -2.45,2.253 c 0,1.466 1.082,2.171 2.323,2.913 1.209,0.724 2.03,1.32 2.03,2.374 a 1.6,1.6 0 0 1 -1.693,1.732 c -1.667,0 -2.265,-1.377 -2.374,-2.951 h -0.3 c 0,1.834 -0.012,2.583 -0.051,3.116 h 0.3 c 0.051,-0.374 0.121,-0.571 0.287,-0.571 a 0.891,0.891 0 0 1 0.445,0.184 3.04,3.04 0 0 0 1.783,0.483 2.468,2.468 0 0 0 2.768,-2.469 c 0,-1.4 -0.993,-2.082 -2.348,-2.926 -1.171,-0.73 -2.19,-1.2 -2.19,-2.38 a 1.486,1.486 0 0 1 1.591,-1.51 c 1.445,0 2.043,1.263 2.139,2.5 h 0.3 c 0,-1.637 0.026,-2.195 0.064,-2.652 h -0.3 c -0.051,0.374 -0.121,0.571 -0.287,0.571 a 0.85,0.85 0 0 1 -0.445,-0.184 2.46,2.46 0 0 0 -1.592,-0.483 z m 12.791,0.146 c -0.4,0.026 -1.056,0.039 -1.655,0.039 -0.674,0 -1.3,-0.013 -1.667,-0.039 v 0.261 c 0.885,0.038 1.056,0.171 1.056,1.117 v 6.446 c 0,0.946 -0.171,1.079 -1.056,1.117 v 0.261 c 0.363,-0.026 0.993,-0.039 1.667,-0.039 0.6,0 1.254,0.013 1.655,0.039 v -0.261 c -0.884,-0.038 -1.056,-0.171 -1.056,-1.117 v -6.447 c 0,-0.946 0.172,-1.079 1.056,-1.117 v -0.261 z m 10.563,-0.184 c -2.425,0 -4.195,1.911 -4.195,4.944 0,2.894 1.572,4.627 4.271,4.627 a 3.2,3.2 0 0 0 2.037,-0.705 0.685,0.685 0 0 1 0.426,-0.222 0.755,0.755 0 0 1 0.357,0.743 h 0.261 V 279.7 c 0,-0.958 0.089,-1.073 0.662,-1.117 v -0.26 c -0.312,0.032 -0.783,0.044 -1.356,0.044 -0.573,0 -1.381,-0.012 -1.84,-0.044 v 0.26 c 1.1,0.044 1.318,0.2 1.318,1.25 v 1.25 a 0.7,0.7 0 0 1 -0.376,0.711 2.373,2.373 0 0 1 -1.355,0.406 c -2.126,0 -3.106,-1.389 -3.106,-4.512 0,-2.792 1.139,-4.563 2.87,-4.563 a 2.932,2.932 0 0 1 2.253,1.016 4.016,4.016 0 0 1 0.656,1.923 h 0.3 c 0,-1.511 0.013,-2.355 0.051,-2.99 h -0.3 c -0.051,0.546 -0.159,0.794 -0.325,0.794 a 0.447,0.447 0 0 1 -0.261,-0.134 3.618,3.618 0 0 0 -2.348,-0.842 z m 18.214,0.184 c -0.287,0.026 -0.77,0.039 -1.209,0.039 -0.439,0 -1.019,-0.013 -1.331,-0.039 v 0.261 c 1.019,0.038 1.184,0.3 1.184,1.25 v 5.559 l -4.6,-7.07 c -0.286,0.026 -0.636,0.039 -1.018,0.039 -0.439,0 -0.923,-0.013 -1.209,-0.039 v 0.261 c 0.884,0.038 1.056,0.171 1.056,1.117 v 6.314 c 0,0.952 -0.172,1.212 -1.056,1.25 v 0.261 c 0.286,-0.026 0.77,-0.039 1.209,-0.039 0.439,0 1.018,0.013 1.33,0.039 v -0.261 c -1.012,-0.038 -1.184,-0.3 -1.184,-1.25 v -6.86 l 5.474,8.434 h 0.3 v -7.755 c 0,-0.952 0.172,-1.212 1.057,-1.25 v -0.261 z M 366,295.892 c -2.425,0 -4.143,1.955 -4.143,4.862 0,2.976 1.655,4.709 4.131,4.709 a 3.82,3.82 0 0 0 2.412,-0.844 0.542,0.542 0 0 1 0.267,-0.108 c 0.185,0 0.274,0.234 0.318,0.768 h 0.3 c -0.039,-0.66 -0.051,-1.549 -0.051,-3.123 h -0.3 a 3.873,3.873 0 0 1 -0.6,2.056 2.739,2.739 0 0 1 -2.228,0.99 c -1.68,0 -2.947,-1.6 -2.947,-4.5 0,-2.818 1.12,-4.576 2.82,-4.576 a 2.835,2.835 0 0 1 2.3,1.016 3.55,3.55 0 0 1 0.655,1.923 h 0.3 c 0,-1.511 0.012,-2.355 0.051,-2.99 h -0.3 c -0.044,0.534 -0.152,0.775 -0.331,0.775 a 0.421,0.421 0 0 1 -0.254,-0.115 3.649,3.649 0 0 0 -2.4,-0.843 z m 14.185,0 c -2.425,0 -4.143,1.955 -4.143,4.862 0,2.976 1.655,4.709 4.131,4.709 2.425,0 4.143,-1.955 4.143,-4.862 -0.003,-2.976 -1.658,-4.709 -4.134,-4.709 z m -0.05,0.235 c 1.6,0 2.876,1.758 2.876,4.525 0,2.691 -1.094,4.576 -2.787,4.576 -1.6,0 -2.884,-1.758 -2.884,-4.525 -0.003,-2.691 1.092,-4.576 2.792,-4.576 z m 18.723,-0.051 c -0.287,0.026 -0.77,0.039 -1.209,0.039 -0.439,0 -1.019,-0.013 -1.331,-0.039 v 0.261 c 1.019,0.038 1.184,0.3 1.184,1.25 v 5.559 l -4.6,-7.07 c -0.286,0.026 -0.636,0.039 -1.018,0.039 -0.439,0 -0.923,-0.013 -1.209,-0.039 v 0.261 c 0.884,0.038 1.056,0.171 1.056,1.117 v 6.314 c 0,0.952 -0.172,1.212 -1.056,1.25 v 0.261 c 0.286,-0.026 0.77,-0.039 1.209,-0.039 0.439,0 1.018,0.013 1.33,0.039 v -0.261 c -1.012,-0.038 -1.184,-0.3 -1.184,-1.25 v -6.86 l 5.474,8.434 h 0.3 v -7.755 c 0,-0.952 0.172,-1.212 1.057,-1.25 v -0.261 z m 9.023,-0.146 a 2.221,2.221 0 0 0 -2.45,2.253 c 0,1.466 1.082,2.171 2.323,2.913 1.209,0.724 2.03,1.32 2.03,2.374 a 1.6,1.6 0 0 1 -1.693,1.732 c -1.667,0 -2.266,-1.377 -2.374,-2.951 h -0.3 c 0,1.834 -0.013,2.583 -0.051,3.116 h 0.3 c 0.051,-0.374 0.121,-0.571 0.287,-0.571 a 0.891,0.891 0 0 1 0.445,0.184 3.036,3.036 0 0 0 1.782,0.483 2.468,2.468 0 0 0 2.769,-2.469 c 0,-1.4 -0.993,-2.082 -2.349,-2.926 -1.171,-0.73 -2.189,-1.2 -2.189,-2.38 a 1.486,1.486 0 0 1 1.591,-1.51 c 1.445,0 2.043,1.263 2.139,2.5 h 0.3 c 0,-1.637 0.025,-2.195 0.063,-2.652 h -0.3 c -0.051,0.374 -0.121,0.571 -0.286,0.571 a 0.853,0.853 0 0 1 -0.446,-0.184 2.459,2.459 0 0 0 -1.594,-0.483 z m 17.456,0.146 c -0.286,0.026 -0.763,0.039 -1.209,0.039 -0.446,0 -1.018,-0.013 -1.33,-0.039 v 0.261 a 1.016,1.016 0 0 1 1.184,1.25 v 4.055 c 0,1.936 -0.535,3.364 -2.5,3.364 -1.852,0 -2.056,-1.466 -2.056,-3.25 v -4.3 c 0,-0.946 0.166,-1.079 1.057,-1.117 v -0.261 c -0.407,0.026 -1.057,0.039 -1.661,0.039 -0.675,0 -1.3,-0.013 -1.668,-0.039 v 0.261 c 0.891,0.038 1.057,0.171 1.057,1.117 v 4.08 c 0,1.771 0.2,2.507 0.967,3.224 a 3.112,3.112 0 0 0 2.19,0.705 2.709,2.709 0 0 0 2.386,-1.213 5.41,5.41 0 0 0 0.535,-2.754 v -3.909 c 0,-0.952 0.166,-1.212 1.05,-1.25 v -0.261 z m 9.444,0 c -0.4,0.026 -1.057,0.039 -1.655,0.039 -0.675,0 -1.305,-0.013 -1.668,-0.039 v 0.261 c 0.885,0.038 1.057,0.171 1.057,1.117 v 6.446 c 0,0.946 -0.172,1.079 -1.057,1.117 v 0.261 c 1.28,-0.039 3,-0.039 3.781,-0.039 0.872,0 2.1,0 2.985,0.039 -0.064,-0.66 -0.089,-1.34 -0.089,-1.663 0,-0.419 0.013,-0.793 0.038,-1.066 h -0.3 c -0.185,1.808 -0.509,2.43 -2.139,2.43 h -0.954 c -0.885,0 -1.057,-0.133 -1.057,-1.079 v -6.447 c 0,-0.946 0.172,-1.079 1.057,-1.117 v -0.261 z m 15.814,0 c -1.082,0.039 -2.591,0.039 -3.66,0.039 -1.069,0 -2.6,0 -3.679,-0.039 0.07,0.66 0.1,1.34 0.1,1.663 0,0.419 -0.013,0.793 -0.039,1.066 h 0.3 c 0.179,-1.808 0.376,-2.43 2,-2.43 h 0.707 v 7.393 c 0,1.054 -0.223,1.212 -1.318,1.25 v 0.261 c 0.414,-0.026 1.146,-0.039 1.929,-0.039 0.706,0 1.457,0.013 1.916,0.039 v -0.261 c -1.1,-0.038 -1.318,-0.2 -1.318,-1.25 v -7.393 h 0.707 c 1.629,0 1.82,0.622 2,2.43 h 0.3 c -0.026,-0.273 -0.038,-0.647 -0.038,-1.066 -0.002,-0.323 0.026,-1.003 0.09,-1.663 z m 9.468,0 c -0.4,0.026 -1.056,0.039 -1.655,0.039 -0.674,0 -1.3,-0.013 -1.667,-0.039 v 0.261 c 0.885,0.038 1.056,0.171 1.056,1.117 v 6.446 c 0,0.946 -0.171,1.079 -1.056,1.117 v 0.261 c 0.363,-0.026 0.993,-0.039 1.667,-0.039 0.6,0 1.254,0.013 1.655,0.039 v -0.261 c -0.884,-0.038 -1.056,-0.171 -1.056,-1.117 v -6.447 c 0,-0.946 0.172,-1.079 1.056,-1.117 v -0.261 z m 14.5,0 c -0.286,0.026 -0.77,0.039 -1.209,0.039 -0.439,0 -1.018,-0.013 -1.33,-0.039 v 0.261 c 1.018,0.038 1.184,0.3 1.184,1.25 v 5.559 l -4.6,-7.07 c -0.287,0.026 -0.637,0.039 -1.019,0.039 -0.439,0 -0.922,-0.013 -1.209,-0.039 v 0.261 c 0.885,0.038 1.057,0.171 1.057,1.117 v 6.314 c 0,0.952 -0.172,1.212 -1.057,1.25 v 0.261 c 0.287,-0.026 0.77,-0.039 1.209,-0.039 0.439,0 1.019,0.013 1.331,0.039 v -0.261 c -1.012,-0.038 -1.184,-0.3 -1.184,-1.25 v -6.86 l 5.474,8.434 h 0.3 v -7.755 c 0,-0.952 0.172,-1.212 1.056,-1.25 v -0.261 z m 10.5,-0.184 c -2.425,0 -4.194,1.911 -4.194,4.944 0,2.894 1.572,4.627 4.271,4.627 a 3.2,3.2 0 0 0 2.036,-0.705 0.686,0.686 0 0 1 0.427,-0.222 0.756,0.756 0 0 1 0.356,0.743 h 0.261 V 302.7 c 0,-0.958 0.089,-1.073 0.662,-1.117 v -0.26 c -0.312,0.032 -0.783,0.044 -1.356,0.044 -0.573,0 -1.381,-0.012 -1.839,-0.044 v 0.26 c 1.095,0.044 1.317,0.2 1.317,1.25 v 1.25 a 0.7,0.7 0 0 1 -0.375,0.711 2.379,2.379 0 0 1 -1.356,0.406 c -2.126,0 -3.106,-1.389 -3.106,-4.512 0,-2.792 1.14,-4.563 2.871,-4.563 a 2.932,2.932 0 0 1 2.253,1.016 4.026,4.026 0 0 1 0.655,1.923 h 0.3 c 0,-1.511 0.012,-2.355 0.05,-2.99 h -0.3 c -0.051,0.546 -0.159,0.794 -0.324,0.794 a 0.444,0.444 0 0 1 -0.261,-0.134 3.623,3.623 0 0 0 -2.355,-0.842 z"
             class="cls-1"
             data-name="Code&amp;Design consulting copy"
             id="Code_Design_consulting_copy"
             inkscape:connector-curvature="0"
             style="fill:#ffffff;fill-rule:evenodd" />
          <path
             transform="translate(-291,-142)"
             d="m 353.9,272.892 c -2.425,0 -4.143,1.955 -4.143,4.862 0,2.976 1.655,4.709 4.13,4.709 a 3.82,3.82 0 0 0 2.413,-0.844 0.542,0.542 0 0 1 0.267,-0.108 c 0.185,0 0.274,0.234 0.318,0.768 h 0.3 c -0.038,-0.66 -0.051,-1.549 -0.051,-3.123 h -0.3 a 3.873,3.873 0 0 1 -0.6,2.056 2.739,2.739 0 0 1 -2.228,0.99 c -1.68,0 -2.947,-1.6 -2.947,-4.5 0,-2.818 1.12,-4.576 2.82,-4.576 a 2.837,2.837 0 0 1 2.3,1.016 3.55,3.55 0 0 1 0.655,1.923 h 0.3 c 0,-1.511 0.013,-2.355 0.051,-2.99 h -0.3 c -0.044,0.534 -0.152,0.775 -0.331,0.775 a 0.421,0.421 0 0 1 -0.254,-0.115 3.649,3.649 0 0 0 -2.4,-0.843 z m 14.185,0 c -2.425,0 -4.143,1.955 -4.143,4.862 0,2.976 1.655,4.709 4.131,4.709 2.425,0 4.143,-1.955 4.143,-4.862 0.004,-2.976 -1.651,-4.709 -4.127,-4.709 z m -0.051,0.235 c 1.6,0 2.877,1.758 2.877,4.525 0,2.691 -1.1,4.576 -2.788,4.576 -1.6,0 -2.883,-1.758 -2.883,-4.525 0.004,-2.691 1.099,-4.576 2.798,-4.576 z m 14.1,-0.051 c -0.5,0 -1.368,0.026 -1.966,0.039 -0.108,0 -0.21,0.006 -0.318,0.006 -0.484,0 -0.974,-0.025 -1.273,-0.045 v 0.261 c 0.884,0.038 1.056,0.171 1.056,1.117 v 6.446 c 0,0.946 -0.172,1.079 -1.056,1.117 v 0.261 c 0.362,-0.026 1,-0.039 1.616,-0.039 0.56,0 1.432,0.039 1.827,0.039 a 4.36,4.36 0 0 0 4.716,-4.7 c 0,-2.902 -1.496,-4.502 -4.602,-4.502 z m -0.324,0.235 c 2.7,0 3.621,1.4 3.621,4.316 0,2.83 -0.77,4.417 -3.608,4.417 -0.809,0 -0.981,-0.21 -0.981,-1.117 v -6.5 c 0,-0.894 0.172,-1.116 0.968,-1.116 z m 17.972,7.305 c 0,-0.362 0.013,-0.7 0.038,-0.939 h -0.3 c -0.184,1.719 -0.509,2.3 -2.138,2.3 h -0.955 c -0.885,0 -1.057,-0.133 -1.057,-1.079 v -3.122 h 0.866 c 1.133,0 1.146,0.889 1.247,1.72 h 0.3 c -0.064,-0.99 -0.077,-1.422 -0.077,-1.847 0,-0.19 -0.006,-0.381 -0.006,-0.622 0,-0.3 0.006,-0.673 0.044,-1.225 h -0.3 c -0.1,0.622 -0.076,1.714 -1.209,1.714 h -0.866 v -3.065 c 0,-0.946 0.172,-1.079 1.057,-1.079 h 1.082 c 1.381,0 1.578,0.507 1.75,2.043 h 0.3 a 7.068,7.068 0 0 1 -0.038,-0.806 c 0,-0.3 0.026,-0.926 0.089,-1.536 -0.808,0.039 -1.928,0.039 -2.724,0.039 -0.796,0 -2.5,0 -3.781,-0.039 v 0.261 c 0.885,0.038 1.057,0.171 1.057,1.117 v 6.449 c 0,0.946 -0.172,1.079 -1.057,1.117 v 0.261 c 1.28,-0.039 3,-0.039 3.781,-0.039 0.872,0 2.1,0 2.985,0.039 -0.062,-0.659 -0.088,-1.339 -0.088,-1.662 z m 17.935,-7.724 c -0.624,0 -1.433,0.223 -1.433,0.9 a 0.644,0.644 0 0 0 0.688,0.647 0.688,0.688 0 0 0 0.732,-0.635 0.7,0.7 0 0 0 -0.363,-0.6 0.443,0.443 0 0 1 0.388,-0.114 1.431,1.431 0 0 1 1.515,1.314 1.448,1.448 0 0 1 -1.12,1.25 33,33 0 0 1 -3.182,1.022 c -1.184,0.406 -1.8,1 -1.8,1.9 a 1.512,1.512 0 0 0 1.617,1.523 1.4,1.4 0 0 0 1.553,-1.117 0.706,0.706 0 1 0 -0.8,0.635 0.971,0.971 0 0 1 -0.783,0.286 1.157,1.157 0 0 1 -1.2,-1.041 1.387,1.387 0 0 1 1.146,-1.13 c 0.35,-0.133 0.91,-0.311 1.5,-0.5 a 1.966,1.966 0 0 1 1.311,1.885 c 0,1.485 -1.585,2.38 -3.424,2.38 -1.954,0 -3.5,-1.015 -3.5,-2.805 a 2.076,2.076 0 0 1 1.693,-2.132 2.793,2.793 0 0 0 0.955,0.285 0.3,0.3 0 0 0 0.363,-0.247 c 0,-0.2 -0.21,-0.3 -0.522,-0.3 a 5.761,5.761 0 0 0 -0.808,0.077 1.911,1.911 0 0 1 -0.662,-1.479 1.417,1.417 0 0 1 1.508,-1.549 1.035,1.035 0 0 1 0.993,0.419 0.724,0.724 0 0 0 -0.694,0.711 0.647,0.647 0 0 0 0.681,0.654 0.706,0.706 0 0 0 0.732,-0.692 1.2,1.2 0 0 0 -0.484,-0.895 2.07,2.07 0 0 0 -1.355,-0.393 c -1.451,0 -2.2,0.78 -2.2,1.624 a 1.914,1.914 0 0 0 1.311,1.676 3,3 0 0 0 -2.406,2.773 c 0,2 1.967,3.237 4.22,3.237 2.514,0 3.978,-1.536 3.978,-3.11 a 2.234,2.234 0 0 0 -1.426,-2.2 18,18 0 0 0 1.935,-0.679 2.017,2.017 0 0 0 1.235,-1.822 1.744,1.744 0 0 0 -1.892,-1.758 z m 14.746,0.184 c -0.5,0 -1.369,0.026 -1.967,0.039 -0.108,0 -0.21,0.006 -0.318,0.006 -0.484,0 -0.974,-0.025 -1.273,-0.045 v 0.261 c 0.885,0.038 1.057,0.171 1.057,1.117 v 6.446 c 0,0.946 -0.172,1.079 -1.057,1.117 v 0.261 c 0.363,-0.026 1.006,-0.039 1.617,-0.039 0.56,0 1.432,0.039 1.826,0.039 a 4.361,4.361 0 0 0 4.717,-4.7 c 0,-2.902 -1.496,-4.502 -4.602,-4.502 z m -0.325,0.235 c 2.7,0 3.622,1.4 3.622,4.316 0,2.83 -0.77,4.417 -3.609,4.417 -0.808,0 -0.98,-0.21 -0.98,-1.117 v -6.5 c 0,-0.894 0.172,-1.116 0.967,-1.116 z m 17.973,7.305 a 9.358,9.358 0 0 1 0.038,-0.939 h -0.3 c -0.185,1.719 -0.51,2.3 -2.139,2.3 h -0.955 c -0.884,0 -1.056,-0.133 -1.056,-1.079 v -3.122 h 0.865 c 1.133,0 1.146,0.889 1.248,1.72 h 0.3 c -0.064,-0.99 -0.076,-1.422 -0.076,-1.847 0,-0.19 -0.007,-0.381 -0.007,-0.622 0,-0.3 0.007,-0.673 0.045,-1.225 h -0.3 c -0.1,0.622 -0.077,1.714 -1.21,1.714 H 445.7 v -3.065 c 0,-0.946 0.172,-1.079 1.056,-1.079 h 1.082 c 1.381,0 1.579,0.507 1.751,2.043 h 0.3 a 6.843,6.843 0 0 1 -0.038,-0.806 c 0,-0.3 0.025,-0.926 0.089,-1.536 -0.809,0.039 -1.929,0.039 -2.724,0.039 -0.795,0 -2.5,0 -3.781,-0.039 v 0.261 c 0.885,0.038 1.056,0.171 1.056,1.117 v 6.449 c 0,0.946 -0.171,1.079 -1.056,1.117 v 0.261 c 1.279,-0.039 3,-0.039 3.781,-0.039 0.872,0 2.1,0 2.985,0.039 -0.065,-0.659 -0.09,-1.339 -0.09,-1.662 z m 9.264,-7.686 a 2.221,2.221 0 0 0 -2.45,2.253 c 0,1.466 1.082,2.171 2.323,2.913 1.209,0.724 2.03,1.32 2.03,2.374 a 1.6,1.6 0 0 1 -1.693,1.732 c -1.667,0 -2.265,-1.377 -2.374,-2.951 h -0.3 c 0,1.834 -0.012,2.583 -0.051,3.116 h 0.3 c 0.051,-0.374 0.121,-0.571 0.287,-0.571 a 0.891,0.891 0 0 1 0.445,0.184 3.04,3.04 0 0 0 1.783,0.483 2.468,2.468 0 0 0 2.768,-2.469 c 0,-1.4 -0.993,-2.082 -2.348,-2.926 -1.171,-0.73 -2.19,-1.2 -2.19,-2.38 a 1.486,1.486 0 0 1 1.591,-1.51 c 1.445,0 2.043,1.263 2.139,2.5 h 0.3 c 0,-1.637 0.026,-2.195 0.064,-2.652 h -0.3 c -0.051,0.374 -0.121,0.571 -0.287,0.571 a 0.85,0.85 0 0 1 -0.445,-0.184 2.46,2.46 0 0 0 -1.592,-0.483 z m 12.791,0.146 c -0.4,0.026 -1.056,0.039 -1.655,0.039 -0.674,0 -1.3,-0.013 -1.667,-0.039 v 0.261 c 0.885,0.038 1.056,0.171 1.056,1.117 v 6.446 c 0,0.946 -0.171,1.079 -1.056,1.117 v 0.261 c 0.363,-0.026 0.993,-0.039 1.667,-0.039 0.6,0 1.254,0.013 1.655,0.039 v -0.261 c -0.884,-0.038 -1.056,-0.171 -1.056,-1.117 v -6.447 c 0,-0.946 0.172,-1.079 1.056,-1.117 v -0.261 z m 10.563,-0.184 c -2.425,0 -4.195,1.911 -4.195,4.944 0,2.894 1.572,4.627 4.271,4.627 a 3.2,3.2 0 0 0 2.037,-0.705 0.685,0.685 0 0 1 0.426,-0.222 0.755,0.755 0 0 1 0.357,0.743 h 0.261 V 279.7 c 0,-0.958 0.089,-1.073 0.662,-1.117 v -0.26 c -0.312,0.032 -0.783,0.044 -1.356,0.044 -0.573,0 -1.381,-0.012 -1.84,-0.044 v 0.26 c 1.1,0.044 1.318,0.2 1.318,1.25 v 1.25 a 0.7,0.7 0 0 1 -0.376,0.711 2.373,2.373 0 0 1 -1.355,0.406 c -2.126,0 -3.106,-1.389 -3.106,-4.512 0,-2.792 1.139,-4.563 2.87,-4.563 a 2.932,2.932 0 0 1 2.253,1.016 4.016,4.016 0 0 1 0.656,1.923 h 0.3 c 0,-1.511 0.013,-2.355 0.051,-2.99 h -0.3 c -0.051,0.546 -0.159,0.794 -0.325,0.794 a 0.447,0.447 0 0 1 -0.261,-0.134 3.618,3.618 0 0 0 -2.348,-0.842 z m 18.214,0.184 c -0.287,0.026 -0.77,0.039 -1.209,0.039 -0.439,0 -1.019,-0.013 -1.331,-0.039 v 0.261 c 1.019,0.038 1.184,0.3 1.184,1.25 v 5.559 l -4.6,-7.07 c -0.286,0.026 -0.636,0.039 -1.018,0.039 -0.439,0 -0.923,-0.013 -1.209,-0.039 v 0.261 c 0.884,0.038 1.056,0.171 1.056,1.117 v 6.314 c 0,0.952 -0.172,1.212 -1.056,1.25 v 0.261 c 0.286,-0.026 0.77,-0.039 1.209,-0.039 0.439,0 1.018,0.013 1.33,0.039 v -0.261 c -1.012,-0.038 -1.184,-0.3 -1.184,-1.25 v -6.86 l 5.474,8.434 h 0.3 v -7.755 c 0,-0.952 0.172,-1.212 1.057,-1.25 v -0.261 z M 366,295.892 c -2.425,0 -4.143,1.955 -4.143,4.862 0,2.976 1.655,4.709 4.131,4.709 a 3.82,3.82 0 0 0 2.412,-0.844 0.542,0.542 0 0 1 0.267,-0.108 c 0.185,0 0.274,0.234 0.318,0.768 h 0.3 c -0.039,-0.66 -0.051,-1.549 -0.051,-3.123 h -0.3 a 3.873,3.873 0 0 1 -0.6,2.056 2.739,2.739 0 0 1 -2.228,0.99 c -1.68,0 -2.947,-1.6 -2.947,-4.5 0,-2.818 1.12,-4.576 2.82,-4.576 a 2.835,2.835 0 0 1 2.3,1.016 3.55,3.55 0 0 1 0.655,1.923 h 0.3 c 0,-1.511 0.012,-2.355 0.051,-2.99 h -0.3 c -0.044,0.534 -0.152,0.775 -0.331,0.775 a 0.421,0.421 0 0 1 -0.254,-0.115 3.649,3.649 0 0 0 -2.4,-0.843 z m 14.185,0 c -2.425,0 -4.143,1.955 -4.143,4.862 0,2.976 1.655,4.709 4.131,4.709 2.425,0 4.143,-1.955 4.143,-4.862 -0.003,-2.976 -1.658,-4.709 -4.134,-4.709 z m -0.05,0.235 c 1.6,0 2.876,1.758 2.876,4.525 0,2.691 -1.094,4.576 -2.787,4.576 -1.6,0 -2.884,-1.758 -2.884,-4.525 -0.003,-2.691 1.092,-4.576 2.792,-4.576 z m 18.723,-0.051 c -0.287,0.026 -0.77,0.039 -1.209,0.039 -0.439,0 -1.019,-0.013 -1.331,-0.039 v 0.261 c 1.019,0.038 1.184,0.3 1.184,1.25 v 5.559 l -4.6,-7.07 c -0.286,0.026 -0.636,0.039 -1.018,0.039 -0.439,0 -0.923,-0.013 -1.209,-0.039 v 0.261 c 0.884,0.038 1.056,0.171 1.056,1.117 v 6.314 c 0,0.952 -0.172,1.212 -1.056,1.25 v 0.261 c 0.286,-0.026 0.77,-0.039 1.209,-0.039 0.439,0 1.018,0.013 1.33,0.039 v -0.261 c -1.012,-0.038 -1.184,-0.3 -1.184,-1.25 v -6.86 l 5.474,8.434 h 0.3 v -7.755 c 0,-0.952 0.172,-1.212 1.057,-1.25 v -0.261 z m 9.023,-0.146 a 2.221,2.221 0 0 0 -2.45,2.253 c 0,1.466 1.082,2.171 2.323,2.913 1.209,0.724 2.03,1.32 2.03,2.374 a 1.6,1.6 0 0 1 -1.693,1.732 c -1.667,0 -2.266,-1.377 -2.374,-2.951 h -0.3 c 0,1.834 -0.013,2.583 -0.051,3.116 h 0.3 c 0.051,-0.374 0.121,-0.571 0.287,-0.571 a 0.891,0.891 0 0 1 0.445,0.184 3.036,3.036 0 0 0 1.782,0.483 2.468,2.468 0 0 0 2.769,-2.469 c 0,-1.4 -0.993,-2.082 -2.349,-2.926 -1.171,-0.73 -2.189,-1.2 -2.189,-2.38 a 1.486,1.486 0 0 1 1.591,-1.51 c 1.445,0 2.043,1.263 2.139,2.5 h 0.3 c 0,-1.637 0.025,-2.195 0.063,-2.652 h -0.3 c -0.051,0.374 -0.121,0.571 -0.286,0.571 a 0.853,0.853 0 0 1 -0.446,-0.184 2.459,2.459 0 0 0 -1.594,-0.483 z m 17.456,0.146 c -0.286,0.026 -0.763,0.039 -1.209,0.039 -0.446,0 -1.018,-0.013 -1.33,-0.039 v 0.261 a 1.016,1.016 0 0 1 1.184,1.25 v 4.055 c 0,1.936 -0.535,3.364 -2.5,3.364 -1.852,0 -2.056,-1.466 -2.056,-3.25 v -4.3 c 0,-0.946 0.166,-1.079 1.057,-1.117 v -0.261 c -0.407,0.026 -1.057,0.039 -1.661,0.039 -0.675,0 -1.3,-0.013 -1.668,-0.039 v 0.261 c 0.891,0.038 1.057,0.171 1.057,1.117 v 4.08 c 0,1.771 0.2,2.507 0.967,3.224 a 3.112,3.112 0 0 0 2.19,0.705 2.709,2.709 0 0 0 2.386,-1.213 5.41,5.41 0 0 0 0.535,-2.754 v -3.909 c 0,-0.952 0.166,-1.212 1.05,-1.25 v -0.261 z m 9.444,0 c -0.4,0.026 -1.057,0.039 -1.655,0.039 -0.675,0 -1.305,-0.013 -1.668,-0.039 v 0.261 c 0.885,0.038 1.057,0.171 1.057,1.117 v 6.446 c 0,0.946 -0.172,1.079 -1.057,1.117 v 0.261 c 1.28,-0.039 3,-0.039 3.781,-0.039 0.872,0 2.1,0 2.985,0.039 -0.064,-0.66 -0.089,-1.34 -0.089,-1.663 0,-0.419 0.013,-0.793 0.038,-1.066 h -0.3 c -0.185,1.808 -0.509,2.43 -2.139,2.43 h -0.954 c -0.885,0 -1.057,-0.133 -1.057,-1.079 v -6.447 c 0,-0.946 0.172,-1.079 1.057,-1.117 v -0.261 z m 15.814,0 c -1.082,0.039 -2.591,0.039 -3.66,0.039 -1.069,0 -2.6,0 -3.679,-0.039 0.07,0.66 0.1,1.34 0.1,1.663 0,0.419 -0.013,0.793 -0.039,1.066 h 0.3 c 0.179,-1.808 0.376,-2.43 2,-2.43 h 0.707 v 7.393 c 0,1.054 -0.223,1.212 -1.318,1.25 v 0.261 c 0.414,-0.026 1.146,-0.039 1.929,-0.039 0.706,0 1.457,0.013 1.916,0.039 v -0.261 c -1.1,-0.038 -1.318,-0.2 -1.318,-1.25 v -7.393 h 0.707 c 1.629,0 1.82,0.622 2,2.43 h 0.3 c -0.026,-0.273 -0.038,-0.647 -0.038,-1.066 -0.002,-0.323 0.026,-1.003 0.09,-1.663 z m 9.468,0 c -0.4,0.026 -1.056,0.039 -1.655,0.039 -0.674,0 -1.3,-0.013 -1.667,-0.039 v 0.261 c 0.885,0.038 1.056,0.171 1.056,1.117 v 6.446 c 0,0.946 -0.171,1.079 -1.056,1.117 v 0.261 c 0.363,-0.026 0.993,-0.039 1.667,-0.039 0.6,0 1.254,0.013 1.655,0.039 v -0.261 c -0.884,-0.038 -1.056,-0.171 -1.056,-1.117 v -6.447 c 0,-0.946 0.172,-1.079 1.056,-1.117 v -0.261 z m 14.5,0 c -0.286,0.026 -0.77,0.039 -1.209,0.039 -0.439,0 -1.018,-0.013 -1.33,-0.039 v 0.261 c 1.018,0.038 1.184,0.3 1.184,1.25 v 5.559 l -4.6,-7.07 c -0.287,0.026 -0.637,0.039 -1.019,0.039 -0.439,0 -0.922,-0.013 -1.209,-0.039 v 0.261 c 0.885,0.038 1.057,0.171 1.057,1.117 v 6.314 c 0,0.952 -0.172,1.212 -1.057,1.25 v 0.261 c 0.287,-0.026 0.77,-0.039 1.209,-0.039 0.439,0 1.019,0.013 1.331,0.039 v -0.261 c -1.012,-0.038 -1.184,-0.3 -1.184,-1.25 v -6.86 l 5.474,8.434 h 0.3 v -7.755 c 0,-0.952 0.172,-1.212 1.056,-1.25 v -0.261 z m 10.5,-0.184 c -2.425,0 -4.194,1.911 -4.194,4.944 0,2.894 1.572,4.627 4.271,4.627 a 3.2,3.2 0 0 0 2.036,-0.705 0.686,0.686 0 0 1 0.427,-0.222 0.756,0.756 0 0 1 0.356,0.743 h 0.261 V 302.7 c 0,-0.958 0.089,-1.073 0.662,-1.117 v -0.26 c -0.312,0.032 -0.783,0.044 -1.356,0.044 -0.573,0 -1.381,-0.012 -1.839,-0.044 v 0.26 c 1.095,0.044 1.317,0.2 1.317,1.25 v 1.25 a 0.7,0.7 0 0 1 -0.375,0.711 2.379,2.379 0 0 1 -1.356,0.406 c -2.126,0 -3.106,-1.389 -3.106,-4.512 0,-2.792 1.14,-4.563 2.871,-4.563 a 2.932,2.932 0 0 1 2.253,1.016 4.026,4.026 0 0 1 0.655,1.923 h 0.3 c 0,-1.511 0.012,-2.355 0.05,-2.99 h -0.3 c -0.051,0.546 -0.159,0.794 -0.324,0.794 a 0.444,0.444 0 0 1 -0.261,-0.134 3.623,3.623 0 0 0 -2.355,-0.842 z"
             class="cls-1"
             data-name="Code&amp;Design consulting copy 2"
             id="Code_Design_consulting_copy_2"
             inkscape:connector-curvature="0"
             style="fill:#ffffff;fill-rule:evenodd" />
        </g>
        <g
           id="BRAND">
          <path
             transform="translate(-291,-142)"
             d="m 368.442,244.247 c -0.533,0.034 -1.384,0.051 -2.168,0.051 h -0.809 l -3.67,10.2 -3.754,-10.25 c -0.375,0.034 -0.959,0.051 -1.459,0.051 -0.576,0 -1.21,-0.017 -1.585,-0.051 v 0.352 c 1.159,0.052 1.385,0.233 1.385,1.519 v 8.581 c 0,1.294 -0.226,1.648 -1.385,1.7 v 0.354 c 0.375,-0.034 1.009,-0.052 1.585,-0.052 0.576,0 1.334,0.018 1.743,0.052 V 256.4 c -1.326,-0.051 -1.551,-0.405 -1.551,-1.7 v -9.327 l 4.3,11.466 h 0.276 l 4.112,-11.414 v 9.456 c 0,1.285 -0.217,1.467 -1.377,1.518 v 0.354 c 0.476,-0.034 1.293,-0.052 2.186,-0.052 0.784,0 1.635,0.018 2.168,0.052 V 256.4 c -1.159,-0.051 -1.384,-0.233 -1.384,-1.518 v -8.766 c 0,-1.286 0.225,-1.467 1.384,-1.519 v -0.353 z m 13.512,-0.087 h -0.276 l -4.02,10.708 a 2.083,2.083 0 0 1 -1.343,1.535 v 0.354 a 12.286,12.286 0 0 1 1.276,-0.052 c 0.6,0 1.318,0.018 1.969,0.052 V 256.4 c -0.976,-0.026 -1.485,-0.293 -1.485,-1.061 a 4.3,4.3 0 0 1 0.342,-1.449 l 0.7,-1.873 h 4.12 l 1.051,2.9 a 2.515,2.515 0 0 1 0.2,0.829 c 0,0.491 -0.383,0.621 -1.209,0.655 v 0.354 c 0.484,-0.034 1.3,-0.052 2.185,-0.052 0.651,0 1.368,0.018 1.835,0.052 V 256.4 a 1.414,1.414 0 0 1 -1.184,-1.13 z m 1.159,7.507 h -3.87 l 1.96,-5.272 z m 17.6,-7.671 c -3.178,0 -5.5,2.6 -5.5,6.721 0,3.935 2.061,6.29 5.6,6.29 a 4.1,4.1 0 0 0 2.669,-0.957 0.886,0.886 0 0 1 0.559,-0.3 1.036,1.036 0 0 1 0.467,1.009 h 0.342 v -3.5 c 0,-1.3 0.117,-1.458 0.868,-1.518 v -0.354 c -0.409,0.043 -1.026,0.06 -1.777,0.06 -0.767,0 -1.81,-0.017 -2.411,-0.06 v 0.354 c 1.435,0.06 1.727,0.267 1.727,1.7 v 1.7 a 0.969,0.969 0 0 1 -0.492,0.966 3.033,3.033 0 0 1 -1.777,0.553 c -2.786,0 -4.07,-1.89 -4.07,-6.135 0,-3.8 1.493,-6.2 3.762,-6.2 a 3.785,3.785 0 0 1 2.952,1.38 5.6,5.6 0 0 1 0.859,2.614 h 0.392 c 0,-2.053 0.017,-3.2 0.067,-4.063 h -0.392 c -0.067,0.742 -0.208,1.078 -0.425,1.078 a 0.574,0.574 0 0 1 -0.342,-0.181 4.636,4.636 0 0 0 -3.074,-1.153 z m 22.326,10.5 c 0,-0.492 0.016,-0.958 0.05,-1.277 H 422.7 c -0.242,2.338 -0.667,3.132 -2.8,3.132 h -1.251 c -1.159,0 -1.384,-0.182 -1.384,-1.467 v -4.244 h 1.135 c 1.485,0 1.5,1.208 1.635,2.338 h 0.392 c -0.084,-1.346 -0.1,-1.933 -0.1,-2.511 0,-0.259 -0.009,-0.517 -0.009,-0.845 0,-0.406 0.009,-0.915 0.059,-1.665 h -0.392 c -0.134,0.845 -0.1,2.329 -1.585,2.329 h -1.134 v -4.167 c 0,-1.286 0.225,-1.467 1.384,-1.467 h 1.418 c 1.81,0 2.069,0.69 2.294,2.778 h 0.392 a 9.908,9.908 0 0 1 -0.05,-1.1 c 0,-0.405 0.033,-1.259 0.117,-2.087 -1.06,0.051 -2.528,0.051 -3.57,0.051 -1.026,0 -3.278,0 -4.955,-0.051 v 0.357 c 1.16,0.052 1.385,0.233 1.385,1.519 v 8.766 c 0,1.285 -0.225,1.467 -1.385,1.518 v 0.354 c 1.677,-0.052 3.929,-0.052 4.955,-0.052 1.142,0 2.752,0 3.912,0.052 -0.087,-0.897 -0.12,-1.82 -0.12,-2.257 z m 13.275,-10.25 c -0.526,0.034 -1.385,0.051 -2.169,0.051 -0.884,0 -1.71,-0.017 -2.185,-0.051 v 0.354 c 1.159,0.052 1.385,0.233 1.385,1.519 v 8.766 c 0,1.285 -0.226,1.467 -1.385,1.518 v 0.354 c 1.677,-0.052 3.929,-0.052 4.954,-0.052 1.143,0 2.753,0 3.912,0.052 -0.083,-0.9 -0.116,-1.82 -0.116,-2.26 0,-0.57 0.016,-1.079 0.05,-1.45 h -0.392 c -0.242,2.459 -0.668,3.3 -2.8,3.3 h -1.251 c -1.159,0 -1.385,-0.182 -1.385,-1.467 v -8.766 c 0,-1.286 0.226,-1.467 1.385,-1.519 v -0.353 z m 17.312,0 c -0.526,0.034 -1.385,0.051 -2.169,0.051 -0.884,0 -1.71,-0.017 -2.185,-0.051 v 0.354 c 1.159,0.052 1.384,0.233 1.384,1.519 v 8.766 c 0,1.285 -0.225,1.467 -1.384,1.518 v 0.354 c 1.676,-0.052 3.928,-0.052 4.954,-0.052 1.143,0 2.753,0 3.912,0.052 -0.083,-0.9 -0.117,-1.82 -0.117,-2.26 0,-0.57 0.017,-1.079 0.05,-1.45 h -0.392 c -0.241,2.459 -0.667,3.3 -2.8,3.3 h -1.249 c -1.16,0 -1.385,-0.182 -1.385,-1.467 v -8.766 c 0,-1.286 0.225,-1.467 1.385,-1.519 v -0.353 z m 17.762,-0.087 h -0.275 l -4.02,10.708 a 2.085,2.085 0 0 1 -1.343,1.535 v 0.354 a 12.273,12.273 0 0 1 1.276,-0.052 c 0.6,0 1.318,0.018 1.968,0.052 V 256.4 c -0.976,-0.026 -1.484,-0.293 -1.484,-1.061 a 4.274,4.274 0 0 1 0.342,-1.449 l 0.7,-1.873 h 4.121 l 1.05,2.9 a 2.5,2.5 0 0 1 0.2,0.829 c 0,0.491 -0.384,0.621 -1.21,0.655 v 0.354 c 0.484,-0.034 1.3,-0.052 2.186,-0.052 0.65,0 1.367,0.018 1.835,0.052 V 256.4 a 1.415,1.415 0 0 1 -1.185,-1.13 z m 1.159,7.507 h -3.87 l 1.96,-5.272 z m 22.45,-7.42 c -0.375,0.034 -1.009,0.051 -1.584,0.051 -0.575,0 -1.335,-0.017 -1.744,-0.051 v 0.354 c 1.335,0.052 1.552,0.406 1.552,1.7 v 7.558 l -6.031,-9.611 c -0.375,0.034 -0.834,0.051 -1.334,0.051 -0.576,0 -1.21,-0.017 -1.585,-0.051 v 0.353 c 1.16,0.052 1.385,0.233 1.385,1.519 v 8.581 c 0,1.294 -0.225,1.648 -1.385,1.7 v 0.354 c 0.375,-0.034 1.009,-0.052 1.585,-0.052 0.576,0 1.334,0.018 1.743,0.052 V 256.4 c -1.326,-0.051 -1.551,-0.405 -1.551,-1.7 v -9.327 l 7.173,11.466 h 0.392 V 246.3 c 0,-1.294 0.225,-1.648 1.384,-1.7 v -0.353 z"
             class="cls-1"
             data-name="magellan copy"
             id="magellan_copy"
             inkscape:connector-curvature="0"
             style="fill:#ffffff;fill-rule:evenodd" />
          <path
             transform="translate(-291,-142)"
             d="m 368.442,244.247 c -0.533,0.034 -1.384,0.051 -2.168,0.051 h -0.809 l -3.67,10.2 -3.754,-10.25 c -0.375,0.034 -0.959,0.051 -1.459,0.051 -0.576,0 -1.21,-0.017 -1.585,-0.051 v 0.352 c 1.159,0.052 1.385,0.233 1.385,1.519 v 8.581 c 0,1.294 -0.226,1.648 -1.385,1.7 v 0.354 c 0.375,-0.034 1.009,-0.052 1.585,-0.052 0.576,0 1.334,0.018 1.743,0.052 V 256.4 c -1.326,-0.051 -1.551,-0.405 -1.551,-1.7 v -9.327 l 4.3,11.466 h 0.276 l 4.112,-11.414 v 9.456 c 0,1.285 -0.217,1.467 -1.377,1.518 v 0.354 c 0.476,-0.034 1.293,-0.052 2.186,-0.052 0.784,0 1.635,0.018 2.168,0.052 V 256.4 c -1.159,-0.051 -1.384,-0.233 -1.384,-1.518 v -8.766 c 0,-1.286 0.225,-1.467 1.384,-1.519 v -0.353 z m 13.512,-0.087 h -0.276 l -4.02,10.708 a 2.083,2.083 0 0 1 -1.343,1.535 v 0.354 a 12.286,12.286 0 0 1 1.276,-0.052 c 0.6,0 1.318,0.018 1.969,0.052 V 256.4 c -0.976,-0.026 -1.485,-0.293 -1.485,-1.061 a 4.3,4.3 0 0 1 0.342,-1.449 l 0.7,-1.873 h 4.12 l 1.051,2.9 a 2.515,2.515 0 0 1 0.2,0.829 c 0,0.491 -0.383,0.621 -1.209,0.655 v 0.354 c 0.484,-0.034 1.3,-0.052 2.185,-0.052 0.651,0 1.368,0.018 1.835,0.052 V 256.4 a 1.414,1.414 0 0 1 -1.184,-1.13 z m 1.159,7.507 h -3.87 l 1.96,-5.272 z m 17.6,-7.671 c -3.178,0 -5.5,2.6 -5.5,6.721 0,3.935 2.061,6.29 5.6,6.29 a 4.1,4.1 0 0 0 2.669,-0.957 0.886,0.886 0 0 1 0.559,-0.3 1.036,1.036 0 0 1 0.467,1.009 h 0.342 v -3.5 c 0,-1.3 0.117,-1.458 0.868,-1.518 v -0.354 c -0.409,0.043 -1.026,0.06 -1.777,0.06 -0.767,0 -1.81,-0.017 -2.411,-0.06 v 0.354 c 1.435,0.06 1.727,0.267 1.727,1.7 v 1.7 a 0.969,0.969 0 0 1 -0.492,0.966 3.033,3.033 0 0 1 -1.777,0.553 c -2.786,0 -4.07,-1.89 -4.07,-6.135 0,-3.8 1.493,-6.2 3.762,-6.2 a 3.785,3.785 0 0 1 2.952,1.38 5.6,5.6 0 0 1 0.859,2.614 h 0.392 c 0,-2.053 0.017,-3.2 0.067,-4.063 h -0.392 c -0.067,0.742 -0.208,1.078 -0.425,1.078 a 0.574,0.574 0 0 1 -0.342,-0.181 4.636,4.636 0 0 0 -3.074,-1.153 z m 22.326,10.5 c 0,-0.492 0.016,-0.958 0.05,-1.277 H 422.7 c -0.242,2.338 -0.667,3.132 -2.8,3.132 h -1.251 c -1.159,0 -1.384,-0.182 -1.384,-1.467 v -4.244 h 1.135 c 1.485,0 1.5,1.208 1.635,2.338 h 0.392 c -0.084,-1.346 -0.1,-1.933 -0.1,-2.511 0,-0.259 -0.009,-0.517 -0.009,-0.845 0,-0.406 0.009,-0.915 0.059,-1.665 h -0.392 c -0.134,0.845 -0.1,2.329 -1.585,2.329 h -1.134 v -4.167 c 0,-1.286 0.225,-1.467 1.384,-1.467 h 1.418 c 1.81,0 2.069,0.69 2.294,2.778 h 0.392 a 9.908,9.908 0 0 1 -0.05,-1.1 c 0,-0.405 0.033,-1.259 0.117,-2.087 -1.06,0.051 -2.528,0.051 -3.57,0.051 -1.026,0 -3.278,0 -4.955,-0.051 v 0.357 c 1.16,0.052 1.385,0.233 1.385,1.519 v 8.766 c 0,1.285 -0.225,1.467 -1.385,1.518 v 0.354 c 1.677,-0.052 3.929,-0.052 4.955,-0.052 1.142,0 2.752,0 3.912,0.052 -0.087,-0.897 -0.12,-1.82 -0.12,-2.257 z m 13.275,-10.25 c -0.526,0.034 -1.385,0.051 -2.169,0.051 -0.884,0 -1.71,-0.017 -2.185,-0.051 v 0.354 c 1.159,0.052 1.385,0.233 1.385,1.519 v 8.766 c 0,1.285 -0.226,1.467 -1.385,1.518 v 0.354 c 1.677,-0.052 3.929,-0.052 4.954,-0.052 1.143,0 2.753,0 3.912,0.052 -0.083,-0.9 -0.116,-1.82 -0.116,-2.26 0,-0.57 0.016,-1.079 0.05,-1.45 h -0.392 c -0.242,2.459 -0.668,3.3 -2.8,3.3 h -1.251 c -1.159,0 -1.385,-0.182 -1.385,-1.467 v -8.766 c 0,-1.286 0.226,-1.467 1.385,-1.519 v -0.353 z m 17.312,0 c -0.526,0.034 -1.385,0.051 -2.169,0.051 -0.884,0 -1.71,-0.017 -2.185,-0.051 v 0.354 c 1.159,0.052 1.384,0.233 1.384,1.519 v 8.766 c 0,1.285 -0.225,1.467 -1.384,1.518 v 0.354 c 1.676,-0.052 3.928,-0.052 4.954,-0.052 1.143,0 2.753,0 3.912,0.052 -0.083,-0.9 -0.117,-1.82 -0.117,-2.26 0,-0.57 0.017,-1.079 0.05,-1.45 h -0.392 c -0.241,2.459 -0.667,3.3 -2.8,3.3 h -1.249 c -1.16,0 -1.385,-0.182 -1.385,-1.467 v -8.766 c 0,-1.286 0.225,-1.467 1.385,-1.519 v -0.353 z m 17.762,-0.087 h -0.275 l -4.02,10.708 a 2.085,2.085 0 0 1 -1.343,1.535 v 0.354 a 12.273,12.273 0 0 1 1.276,-0.052 c 0.6,0 1.318,0.018 1.968,0.052 V 256.4 c -0.976,-0.026 -1.484,-0.293 -1.484,-1.061 a 4.274,4.274 0 0 1 0.342,-1.449 l 0.7,-1.873 h 4.121 l 1.05,2.9 a 2.5,2.5 0 0 1 0.2,0.829 c 0,0.491 -0.384,0.621 -1.21,0.655 v 0.354 c 0.484,-0.034 1.3,-0.052 2.186,-0.052 0.65,0 1.367,0.018 1.835,0.052 V 256.4 a 1.415,1.415 0 0 1 -1.185,-1.13 z m 1.159,7.507 h -3.87 l 1.96,-5.272 z m 22.45,-7.42 c -0.375,0.034 -1.009,0.051 -1.584,0.051 -0.575,0 -1.335,-0.017 -1.744,-0.051 v 0.354 c 1.335,0.052 1.552,0.406 1.552,1.7 v 7.558 l -6.031,-9.611 c -0.375,0.034 -0.834,0.051 -1.334,0.051 -0.576,0 -1.21,-0.017 -1.585,-0.051 v 0.353 c 1.16,0.052 1.385,0.233 1.385,1.519 v 8.581 c 0,1.294 -0.225,1.648 -1.385,1.7 v 0.354 c 0.375,-0.034 1.009,-0.052 1.585,-0.052 0.576,0 1.334,0.018 1.743,0.052 V 256.4 c -1.326,-0.051 -1.551,-0.405 -1.551,-1.7 v -9.327 l 7.173,11.466 h 0.392 V 246.3 c 0,-1.294 0.225,-1.648 1.384,-1.7 v -0.353 z"
             class="cls-1"
             data-name="magellan copy 2"
             id="magellan_copy_2"
             inkscape:connector-curvature="0"
             style="fill:#ffffff;fill-rule:evenodd" />
        </g>
        <path
           style="fill:#ffffff;fill-rule:evenodd"
           d="M 56.900391 0 C 51.877391 0 40.517391 0.033671875 32.900391 0.013671875 L 32.65625 1.3847656 C 38.33025 1.6227656 39.429688 2.4496094 39.429688 8.3496094 L 39.429688 48.548828 C 39.429688 54.444828 38.32825 55.276672 32.65625 55.513672 L 32.255859 56.992188 C 34.581859 57.012187 38.920094 56.992188 43.246094 56.992188 C 47.082094 56.992188 51.643375 56.971188 54.234375 56.992188 L 53.960938 55.513672 C 48.285938 55.276672 47.185547 54.448828 47.185547 48.548828 L 47.185547 8.3496094 C 47.185547 2.4536094 48.287938 1.6210938 53.960938 1.6210938 L 60.083984 1.6210938 C 70.530984 1.6210938 72.447859 5.1986095 73.630859 16.474609 L 73.630859 16.476562 L 74.923828 16.476562 L 76.863281 16.476562 C 78.046281 5.2005626 79.963156 1.5566406 90.410156 1.5566406 L 96.533203 1.5566406 C 102.2062 1.5566406 103.30859 2.3872032 103.30859 8.2832031 L 103.30859 48.484375 C 103.30859 54.379375 102.2082 55.209266 96.533203 55.447266 L 96.255859 56.992188 C 98.785859 57.012187 103.40814 56.992188 107.24414 56.992188 C 111.57014 56.992188 115.88838 56.971188 118.23438 56.992188 L 117.83594 55.445312 C 112.16394 55.207313 111.06055 54.377422 111.06055 48.482422 L 111.06055 8.28125 C 111.06055 2.3812501 112.16194 1.5544062 117.83594 1.3164062 L 117.58984 0.017578125 L 117.58984 0.013671875 L 63.197266 0.013671875 C 61.00071 0.0076108801 58.679445 0 56.900391 0 z "
           transform="translate(58.75699,24.995981)"
           id="MLL" />
      </g>
    </g>
  </g>
</svg>
