<svg xmlns="http://www.w3.org/2000/svg" width="29" height="8" viewBox="0 0 29 8"><defs><style>.cls-1 { fill: #adb0a0; fill-rule: evenodd; opacity: 0.7; }</style></defs><path id="ornament" class="cls-1" d="M4.04 3.3a2.363 2.363 0 0 0-2.46 1.99 1.366 1.366 0 0 0 .53 1.14c.19.15.19.37-.03.62a1.468 1.468 0 0 1-1.01.5A1.182 1.182 0 0 1 0 6.27a3.36 3.36 0 0 1 1.49-2.39A6.063 6.063 0 0 1 5.06 2.5a9.6 9.6 0 0 1 6.25-2.51 10.64 10.64 0 0 1 3.93.86c.67.26 3.3 1.38 5.16 2.21a14.09 14.09 0 0 0 4.79 1.32c.93 0 2.26-.33 2.26-1.49a1.047 1.047 0 0 0-.39-.89.64.64 0 0 1-.23-.42A1.108 1.108 0 0 1 27.86.5 1.262 1.262 0 0 1 29 1.82c0 1.55-1.65 2.59-2.77 3.06C24.18 7.11 22.11 8 20.1 8a13.63 13.63 0 0 1-4.76-1.1c-1.42-.53-5.86-2.37-7.64-2.95a11 11 0 0 0-3.64-.65h-.02zM9.77.84a3.943 3.943 0 0 0-3.3 1.73 11.855 11.855 0 0 1 3.9.91c1.94.67 5.52 2.23 6.78 2.67A12.883 12.883 0 0 0 21.2 7a3.726 3.726 0 0 0 3.51-1.77 8.71 8.71 0 0 1-4.61-.81c-1.48-.58-5.54-2.48-6.92-2.95A10.24 10.24 0 0 0 9.79.84h-.02z"/></svg>