<svg xmlns="http://www.w3.org/2000/svg" width="1600.097" height="384.615" viewBox="0 0 332.82024 79.989335"><path d="M286.612-.024c-17.338 0-31.447 14.116-31.447 31.46 0 17.354 14.11 31.464 31.447 31.464 17.346 0 31.455-14.11 31.455-31.463 0-17.345-14.11-31.46-31.455-31.46m24.54 13.905a44.083 44.083 0 0 1-5.063 2.933 32.666 32.666 0 0 0-3.757-5.882 29.028 29.028 0 0 0 3.664-2.622 30.223 30.223 0 0 1 5.154 5.572M297.92 3.445a30.042 30.042 0 0 1 7.048 4.044 28.74 28.74 0 0 1-3.467 2.448 32.55 32.55 0 0 0-5.177-4.787 16 16 0 0 0 1.598-1.705m2.438 7.14a29.472 29.472 0 0 1-5.3 2.215 47.27 47.27 0 0 0-2.62-5.13 14.447 14.447 0 0 0 2.865-1.68 31.863 31.863 0 0 1 5.055 4.596m-3.72-7.62c-.427.506-.895.98-1.392 1.416a32.92 32.92 0 0 0-5.27-2.918c2.29.247 4.52.75 6.663 1.503m-2.466 2.25c-.756.534-1.564.987-2.416 1.345a48.746 48.746 0 0 0-3.03-4.224 31.557 31.557 0 0 1 5.446 2.88m-6.91-2.656a45.88 45.88 0 0 1 3.248 4.445 12.88 12.88 0 0 1-3.248.57zm0 6.32a14.845 14.845 0 0 0 3.955-.733 43.507 43.507 0 0 1 2.58 5.003c-2.142.55-4.337.858-6.536.903zm-1.312-6.27v4.965a12.84 12.84 0 0 1-3.203-.57 47.28 47.28 0 0 1 3.202-4.394m-4.44 3.953a12.764 12.764 0 0 1-2.412-1.35 30.82 30.82 0 0 1 5.424-2.866 46.133 46.133 0 0 0-3.012 4.216m1.817-5.113a33.125 33.125 0 0 0-5.313 2.925 14.587 14.587 0 0 1-1.393-1.423 29.606 29.606 0 0 1 6.705-1.502m21.544 53.998c-4.18-2.29-4.262-5.478-4.045-6.646.226-1.19 1.044-.673 1.56-.673 2.75 0 5.647-.812 9.208-4.453 4.02-4.1 5.283-13.222-.895-19.16-6.656-6.41-13.734-5.29-18.3.473-.938 1.18-3.218 2.045-5.194 1.975-2.927-.11-1.085 2.195-1.085 2.673 0 .486-.44.818-.7.745-.995-.282-.597 1.19-.597 1.633 0 .447-.406.672-.63.672-1.23 0-.89 1.112-.854 1.407.037.297-.07.815-.482 1.04-.39.223-.855 1.19-.855 1.936 0 1.334 1.225 2.265 3.273 3.786 2.035 1.527 2.3 2.97 2.334 4.01.04 1.04.135 2.717.6 3.828.55 1.338.477 3.79-2.346 3.897-3.447.14-9.572 2.9-10.094 3.084-1.943.694-4.516.94-6.527.438a29.517 29.517 0 0 1-3.088-2.5c-.403-1.384.296-2.877 1-3.882 1.15 1.15 2.864 1.078 3.82 1.11.966.04 5.68-.7 6.35-.923.67-.226.968-.146 1.372 0 1.803.655 4.27.85 5.27-2.6 1.005-3.452-1.37-2.486-1.667-2.342-.3.15-.707.116-.555-.18.438-.88-.223-.79-.596-.822-.965-.097-2.23.93-2.635 1.304-.413.372-.823.33-.97.258-1.277-.64-5.092.284-6.27-1.785.11-.554-.97-8.946-1.527-10.396a1.444 1.444 0 0 1 .15-1.37c.97-1.46 3.64.105 5.088.07 1.735-.043 2.013-.768 2.487-1.355.46-.568.795-.252 1.04-.41.317-.202.02-.61.128-.833.115-.224.246-.114.54-.37.298-.267-.04-.818.108-1.044.428-.647 1.598-.125.895-1.816-.38-.924.152-1.93.67-2.6.842-1.086 4.088-5.652-1.635-10.4-5.463-4.525-10.992-4.155-14.557-.3-3.562 3.862-1.78 9.51-1.408 10.993.373 1.49-.697 2.837-1.928 3.42-.98.46-3.203 1.943-4.885 3.41.27-12.123 7.623-22.778 18.9-27.317.477.604 1.012 1.17 1.59 1.708-1.256.915-3.996 3.368-3.996 3.368s.374.055.722.14c.242.06.752.212.752.212s2.414-2.058 3.55-2.872c.882.67 1.847 1.23 2.87 1.68-.553.936-1.928 3.516-1.928 3.516s.318.193.61.382c.278.19.456.355.456.355s1.502-2.826 2.072-3.77c1.262.42 2.574.663 3.904.725v5.183c-.736-.025-2.637-.103-3.406-.178l-.482-.05.268.4c.207.3.36.597.504.87l.053.105.127.018c.56.043 2.29.104 2.938.12v9.43h1.312v-2.16c1.914-.092 3.512-.222 5.44-.39l.085-.01 1.693-1.5-.926.08a68.24 68.24 0 0 1-5.45.485l-.843.044v-5.98a30.57 30.57 0 0 0 7.056-.99c.63 1.558 1.824 5.332 1.824 5.332l1.234-.382s-1.193-3.75-1.82-5.312a30.116 30.116 0 0 0 5.65-2.398 31.217 31.217 0 0 1 3.72 5.775c-.93.438-2.62 1.036-2.614 1.036 1.354.146 2.383.47 2.383.47s.48-.206.787-.343c.123.27.355.82.355.82l1.688.75-.193-.468s-.56-1.338-.695-1.65a46.095 46.095 0 0 0 5.248-3.037 30.055 30.055 0 0 1 4.91 16.492c.003 9.79-4.68 18.498-11.92 24.014M252.318 8.338l-.49.438c-1.848 1.63-6.055 5.94-5.416 10.672.007.02.07.336.07.336l.21.937.588-.54c2.584-2.356 4.518-6.363 5.31-10.982l.222-1.3zm-8.56 8.177l-.21.57c-.296.788-.825 2.448-1.112 4.654-.398 3.122-.307 7.54 2.408 10.844-.006-.004.3.392.3.392l.313.397.4-2.007c.45-3.543-.14-10.97-1.445-14.288l-.444-1.132zm-3.125 12.776l-.037.586c-.23 3.18-.066 11.025 6.285 15.188l.756.486-.033-.895c-.11-2.98-3.584-11.862-6.19-15.046l-.735-.903zm1.093 14.043l.11.536c.925 4.504 5.198 11.81 11.804 13.925l.9.297-.327-.892c-1.227-3.372-7.592-11.228-11.68-13.817l-.922-.588zm13.26-28.2l-.52.31c-4.913 3.006-7.216 6.64-7.042 11.123l.045 1.027.713-.594c2.663-2.205 5.987-7.827 6.968-11.02l.36-1.163zm-2.893 9.82l-.37.353c-1.257 1.194-5.325 5.53-4.976 10.887.053.823.244 1.712.56 2.632l.286.854.523-.733c1.945-2.737 4.525-9.965 4.387-13.326l-.04-1.018zm.213 9.3l-.277.414c-2.053 3.047-3.098 6.177-3.035 9.06.057 2.133.736 4.175 2.023 6.072l.428.636.363-.677c.885-1.665 1.592-7.075 1.484-11.357-.036-1.51-.185-2.76-.437-3.614l-.275-.942zm2.385 9.948l-.13.433c-.62 1.977-.91 3.913-.858 5.75.12 4.16 1.96 7.408 5.48 9.666l.593.377.13-.802c0-.02.048-.64.048-.64-.096-3.386-2.617-11.89-4.584-14.495l-.546-.72zm-6.93 13.194l.252.424c2.648 4.434 7.14 10.163 15.54 8.693l.704-.116-.398-.592c-1.572-2.334-11.77-8.088-15.37-8.68l-.98-.16zm12.424 11.267l-1.316.36 1.266.513c5.338 2.188 12.035 2.833 15.914 1.53 1.463-.495 2.346-1.297 3.43-2.354 6.836.706 13.234 6.392 16.963 11.03l.203.236.29-.093c.417-.145 1.063-.642 1.335-.938l.26-.28-.236-.31c-3.89-5.094-9.98-8.25-10.254-8.374-5.48-2.68-15.16-4.76-27.854-1.32"/><path d="M260.467 54.454l.074.45c.802 5.032 2.847 11.636 11.343 10.907l.547-.048-.137-.528c-.578-2.29-8.36-8.94-11.078-10.81L260.4 54zm60.077-46.556l.227 1.3c.794 4.62 2.728 8.626 5.312 10.982l.59.54.203-.937s.064-.316.066-.336c.65-4.732-3.563-9.04-5.403-10.672l-.496-.438zm8.85 8.046l-.448 1.132c-1.305 3.317-1.895 10.745-1.447 14.288l.405 2.008.312-.397.3-.392c2.712-3.304 2.804-7.722 2.4-10.844-.28-2.207-.812-3.867-1.105-4.656l-.21-.57zm3.29 12.764l-.738.902c-2.604 3.184-6.082 12.066-6.186 15.046l-.035.895.748-.485c6.35-4.163 6.518-12.01 6.29-15.188l-.042-.586zm-.94 14.087l-.92.588c-4.087 2.59-10.454 10.445-11.683 13.817l-.325.892.902-.297c6.598-2.114 10.88-9.42 11.803-13.926l.113-.537zm-13.642-28.132l.34 1.168c.912 3.216 4.125 8.903 6.74 11.155l.71.607.058-1.023c.266-4.48-1.965-8.162-6.816-11.256l-.52-.328zm2.793 9.94l-.04 1.018c-.136 3.362 2.438 10.59 4.384 13.327l.528.732.29-.855c.31-.92.5-1.81.554-2.632.354-5.357-3.72-9.692-4.977-10.887l-.37-.353zm-.117 9.244l-.273.94c-.252.855-.4 2.105-.438 3.615-.11 4.282.598 9.692 1.48 11.356l.36.677.435-.637c1.287-1.897 1.96-3.94 2.018-6.072.07-2.883-.977-6.013-3.03-9.06l-.276-.415zm-2.246 9.924l-.54.72c-1.974 2.606-4.49 11.11-4.587 14.495 0 0 .05.62.053.64l.127.803s.596-.378.598-.378c3.516-2.258 5.355-5.506 5.475-9.667.05-1.836-.234-3.772-.857-5.75l-.136-.43zm7.32 13.192l-.982.16c-3.605.592-13.8 6.346-15.37 8.68l-.397.592.703.117c8.406 1.47 12.893-4.26 15.54-8.69l.253-.426zm-40.533 13.02c-.27.122-6.368 3.28-10.25 8.372l-.24.31.265.28c.27.298.916.795 1.34.94l.283.092.2-.233c3.724-4.64 10.126-10.325 16.96-11.032 1.084 1.058 1.967 1.857 3.432 2.354 3.883 1.304 10.574.66 15.918-1.53l1.264-.512-1.318-.36C300.48 65.22 290.8 67.3 285.32 69.983M312.96 54l-.81.424c-2.73 1.868-10.513 8.52-11.09 10.81l-.132.527.543.05c8.498.728 10.545-5.876 11.344-10.91l.074-.448zM98.24 3.07h10.62v9.684H98.24zm.843 20.687h8.934v47.196h-8.934zm-67.405.044h8.928v47.193h-8.744v-6.954h-.184c-3.574 5.926-9.588 8.363-16.17 8.363C5.643 72.406 0 64.886 0 55.393v-31.59h8.934v27.922c0 8.175 1.877 14.195 10.428 14.195 3.668 0 8.65-1.878 10.525-6.767 1.69-4.42 1.79-9.963 1.79-11.1zm26.756 6.956h.188c3.006-5.927 9.592-8.366 14.287-8.366 3.29 0 17.856.843 17.856 15.98v32.623H81.84V41.29c0-7.806-3.29-12.03-10.81-12.03 0 0-4.894-.282-8.647 3.477-1.316 1.312-3.762 3.38-3.762 12.595v25.666h-8.93V23.805h8.743v6.955zm86.97 8.18c-.47-5.885-3.263-9.99-9.62-9.99-8.486 0-11.76 7.368-11.76 18.4 0 11.02 3.273 18.4 11.76 18.4 5.877 0 9.52-3.82 9.984-10.555h8.88c-.755 10.556-8.59 16.997-18.96 16.997-15.03 0-21.004-10.64-21.004-24.474 0-13.744 6.904-25.223 21.762-25.223 9.902 0 17.363 6.262 17.816 16.442h-8.86zm22.58 10.086c-.657 8.222 2.708 16.726 11.76 16.726 6.913 0 10.364-2.7 11.386-9.538h9.352c-1.412 10.667-9.63 15.98-20.824 15.98-15.037 0-21.025-10.64-21.025-24.475 0-13.745 6.924-25.224 21.77-25.224 14.002.29 20.63 9.152 20.63 22.148v4.38h-33.048zm23.72-6.158c.184-7.847-3.373-13.918-11.96-13.918-7.384 0-11.76 6.237-11.76 13.918zM211.08 70.79V30.067h-8.063v-6.183h8.062V13.812c.29-10.28 8.034-12.988 14.665-12.988 2.143 0 4.207.556 6.363.932v7.372c-1.512-.077-2.996-.28-4.5-.28-5.03 0-7.936 1.32-7.658 6.45v8.587h10.84v6.183h-10.84V70.79h-8.87z"/></svg>