<svg xmlns="http://www.w3.org/2000/svg" width="559.75049" height="118.00156"><path d="M554.75046 33.95275l-2.28125 14.52442h-12.24318l-10.06146 63.6968h-15.45683l10.0635-63.6968h-12.13957l2.28327-14.52442h39.83552m-45.42792 0l-2.27922 14.52442h-15.66606l-2.69565 17.01288h13.79718l-2.28327 14.5236h-13.79516l-2.80128 17.6359h15.87123l-2.28328 14.52442h-31.33009l12.34474-78.22122h31.12086m-52.26557 0l-10.06146 63.6968h16.18203l-2.28328 14.52442h-31.63885l12.3427-78.22122h15.45886m-48.12154 31.95231l.10363-11.82633h-.20518l-3.52851 11.82633-6.64061 20.85199h10.8923l-.6216-20.85199zm11.82471-31.95231l6.4334 78.22122h-16.4969l-.82677-13.17619h-15.66606l-4.87737 13.17619h-15.35118l30.49925-78.22122h16.28563m-69.8127 0l-4.77172 30.60428h15.66605l4.76767-30.60428h15.46293l-12.34881 78.22122h-15.45683l5.28974-33.09252h-15.66606l-5.28974 33.09252h-15.45683l12.34678-78.22122h15.45682m-23.54175 14.73163c-1.86685-.51902-3.73572-.83003-5.70616-.83003-13.59201 0-21.4738 12.34454-23.34267 24.37828-1.86685 11.61852 1.76323 25.93513 15.24758 25.93513 1.97248 0 4.04857-.51821 6.1226-1.14042l-2.2853 14.62598c-2.48438.93566-4.8733 1.34824-7.35972 1.34824-22.30666 0-31.54135-20.12415-28.218-40.66432 3.00645-19.39975 19.08489-39.31831 40.14631-39.31831 2.69768 0 5.18816.51881 7.67661 1.45284l-2.28125 14.21261M190.76644 67.56511l2.69627.10401c7.05521 0 10.58231-4.77295 11.61892-11.20432.93444-5.60216-1.03661-10.16649-8.92165-9.75147h-2.07506l-3.31848 20.85178zm-22.51265 44.60886l12.34535-78.22122h15.56084c9.85609 0 27.38696 1.03804 23.96408 22.40804-1.34884 8.61125-5.91337 15.97645-14.31722 20.22977l7.98944 35.58341h-16.28746l-7.8834-36.10243h-.20801l-5.70618 36.10243h-15.45744m4.88874-78.22122l-2.28206 14.52442h-15.66403l-2.69707 17.01288h13.79677l-2.28205 14.5236h-13.7976l-2.80107 17.6359h15.87245l-2.28288 14.52442h-31.32947l12.34636-78.22122h31.12065m-38.16062 0l-2.28308 14.52442h-12.24074l-10.06329 63.6968H94.93737l10.06329-63.6968H92.86312l2.28206-14.52442h39.83673m-78.4331 0l11.82654 47.20132.31182-.20801c-.41502-3.73349 0-7.7796.62221-11.82491l5.49815-35.1684h15.45683l-12.34474 78.22122h-14.6268L51.67348 64.97204l-.20781.207-.51902 7.88442-.41501 3.21528-5.70535 35.89523H29.369459L41.7142 33.95275h14.83461m-23.7457 0l-12.344738 78.22122H5l12.346224-78.22122H32.80311" fill="#004d91"/><path d="M237.33601 5h82.39103l-98.01443 106.86134L237.33601 5" fill="#c22271"/></svg>