<svg xmlns="http://www.w3.org/2000/svg" viewBox="0 0 226.58093 10.329333" height="39039.999" width="856368.869"><g style="line-height:1.25" font-size="10.583" font-family="Montserrat" letter-spacing="0" word-spacing="0" fill="#354e71" stroke-width=".265" font-weight="bold"><path d="M5.165 5.79V.782H.677V2.38h2.54v3.367c0 .56-.296.857-.772.857-.434 0-1.016-.275-1.556-.836L0 7.09c.656.763 1.513 1.197 2.582 1.197 1.588 0 2.583-.91 2.583-2.498zM10.182 2.477v2.825c0 .752-.402 1.28-1.07 1.29-.56 0-.92-.39-.92-1.036v-3.08H6.308v3.62c0 1.334.805 2.19 2.043 2.19.816-.01 1.44-.348 1.832-1.015v.932h1.884V2.477zM15.39 3.43v-.953h-1.884v5.725h1.883v-2.92c.095-.795.793-1.26 1.84-1.154V2.402c-.803 0-1.45.37-1.84 1.027zM18.995 0c-.497 0-.857.36-.857.868 0 .497.36.857.857.857.498 0 .857-.36.857-.857 0-.508-.36-.868-.857-.868zm-.942 2.477v5.725h1.873V2.477zM25.18 4.286l.636-1.227c-.72-.435-1.556-.668-2.38-.668-1.345 0-2.35.656-2.35 1.852 0 1.98 2.952 1.587 2.952 2.37 0 .233-.254.35-.603.35-.635 0-1.376-.254-2.032-.71l-.593 1.218c.7.54 1.62.815 2.582.815 1.397 0 2.424-.667 2.424-1.842.01-1.99-2.995-1.63-2.995-2.38 0-.244.223-.36.54-.36.466 0 1.112.21 1.82.58zM30.204 6.572c-.275.117-.52.19-.71.19-.327.01-.518-.18-.518-.603V4h1.482V2.752h-1.482V1.164h-1.873v1.588h-.794V4h.793v2.456c0 1.185.804 1.84 1.915 1.83.56 0 1.133-.137 1.546-.38zM32.41 0c-.497 0-.857.36-.857.868 0 .497.36.857.857.857.498 0 .858-.36.858-.857 0-.508-.36-.868-.858-.868zm-.942 2.477v5.725h1.874V2.477zM38.596 4.286l.635-1.227c-.718-.435-1.554-.668-2.38-.668-1.344 0-2.35.656-2.35 1.852 0 1.98 2.953 1.587 2.953 2.37 0 .233-.254.35-.603.35-.635 0-1.376-.254-2.032-.71l-.593 1.218c.7.54 1.62.815 2.583.815 1.397 0 2.423-.667 2.423-1.842.012-1.99-2.994-1.63-2.994-2.38 0-.244.222-.36.54-.36.466 0 1.11.21 1.82.58zM43.947 4.56l1.365-.792c-.497-.858-1.407-1.355-2.56-1.355-1.78 0-2.964 1.175-2.964 2.953 0 1.746 1.174 2.9 2.942 2.9 1.217 0 2.148-.498 2.603-1.376l-1.386-.794c-.233.444-.624.646-1.122.646-.677 0-1.143-.55-1.143-1.387 0-.825.466-1.386 1.143-1.386.487 0 .868.22 1.122.59zM50.038 2.402c-.836 0-1.493.35-1.895 1.006V.348H46.26v7.854h1.883V5.376c0-.75.424-1.28 1.122-1.29.603 0 .974.4.974 1.047v3.07h1.883v-3.61c0-1.344-.826-2.19-2.085-2.19zM55.92 2.413c-1.79 0-2.986 1.175-2.986 2.953 0 1.746 1.154 2.9 3.027 2.9 1.06 0 1.917-.36 2.5-1.016l-.986-.985c-.38.38-.857.582-1.344.582-.645 0-1.12-.36-1.3-1.005h3.978c.127-2.085-.89-3.43-2.89-3.43zm-1.134 2.424c.127-.657.53-1.1 1.143-1.1.634 0 1.058.443 1.058 1.1zM68.082 3.07l.73-1.535C68.04 1.037 66.94.7 65.85.7c-1.79 0-2.964.877-2.964 2.263 0 2.625 3.905 1.863 3.905 3.122 0 .392-.36.604-.93.604-.773 0-1.927-.467-2.69-1.123l-.75 1.513c.89.73 2.18 1.186 3.418 1.186 1.65 0 2.985-.773 2.985-2.286 0-2.667-3.905-1.97-3.905-3.197 0-.338.307-.508.772-.508.614 0 1.61.35 2.392.794zM73.178 6.572c-.275.117-.52.19-.71.19-.327.01-.518-.18-.518-.603V4h1.482V2.752H71.95V1.164h-1.873v1.588h-.794V4h.794v2.456c0 1.185.804 1.84 1.915 1.83.56 0 1.133-.137 1.546-.38zM78.147 2.477v2.825c0 .752-.402 1.28-1.07 1.29-.56 0-.92-.39-.92-1.036v-3.08h-1.884v3.62c0 1.334.805 2.19 2.043 2.19.815-.01 1.44-.348 1.83-1.015v.932h1.885V2.477zM85.365.35v2.878c-.402-.52-.995-.815-1.736-.815-1.577 0-2.625 1.154-2.625 2.9 0 1.778 1.058 2.963 2.667 2.963.72 0 1.302-.286 1.693-.815v.742h1.884V.35zm-1.228 6.445c-.74 0-1.238-.583-1.238-1.43 0-.846.497-1.428 1.237-1.428.73 0 1.228.572 1.228 1.43 0 .845-.497 1.428-1.228 1.428zM89.688 0c-.497 0-.857.36-.857.868 0 .497.36.857.858.857s.858-.36.858-.857c0-.508-.36-.868-.858-.868zm-.94 2.477v5.725h1.872V2.477zM94.573 2.413c-1.79 0-2.985 1.175-2.985 2.953 0 1.746 1.154 2.9 3.027 2.9 1.058 0 1.916-.36 2.498-1.016l-.985-.985c-.38.38-.857.582-1.344.582-.645 0-1.122-.36-1.3-1.005h3.978c.127-2.085-.89-3.43-2.89-3.43zM93.44 4.837c.127-.657.53-1.1 1.143-1.1.635 0 1.06.443 1.06 1.1zM102.22 2.402c-.837 0-1.493.35-1.895 1.006v-.93H98.44V8.2h1.885V5.175c.074-.645.487-1.08 1.122-1.09.592 0 .973.402.973 1.048v3.07h1.874v-3.61c0-1.344-.826-2.19-2.075-2.19zM109.18 2.477v.698c-.38-.487-.95-.762-1.67-.762-1.42 0-2.403 1.08-2.403 2.71 0 1.66 1.016 2.762 2.444 2.762.71 0 1.26-.265 1.63-.752v.614c0 .667-.517 1.1-1.375 1.1-.613 0-1.248-.2-1.767-.56l-.656 1.302c.645.422 1.556.74 2.56.74 1.853 0 3.113-1.017 3.113-2.636V2.477zM108.03 6.51c-.7 0-1.164-.552-1.164-1.335 0-.793.465-1.344 1.164-1.344.688 0 1.153.54 1.153 1.345 0 .783-.464 1.334-1.152 1.334zM114.954 2.413c-1.79 0-2.985 1.175-2.985 2.953 0 1.746 1.153 2.9 3.026 2.9 1.06 0 1.916-.36 2.498-1.016l-.984-.985c-.38.38-.858.582-1.344.582-.646 0-1.122-.36-1.302-1.005h3.98c.126-2.085-.89-3.43-2.89-3.43zm-1.133 2.424c.128-.657.53-1.1 1.144-1.1.635 0 1.06.443 1.06 1.1zM122.643 4.286l.635-1.227c-.72-.435-1.556-.668-2.38-.668-1.346 0-2.35.656-2.35 1.852 0 1.98 2.952 1.587 2.952 2.37 0 .233-.254.35-.603.35-.635 0-1.376-.254-2.032-.71l-.593 1.218c.698.54 1.62.815 2.582.815 1.397 0 2.424-.667 2.424-1.842.01-1.99-2.995-1.63-2.995-2.38 0-.244.222-.36.54-.36.465 0 1.11.21 1.82.58zM126.82 2.413c-1.79 0-2.986 1.175-2.986 2.953 0 1.746 1.154 2.9 3.027 2.9 1.06 0 1.917-.36 2.5-1.016l-.985-.985c-.38.38-.858.582-1.345.582-.645 0-1.12-.36-1.3-1.005h3.978c.127-2.085-.89-3.43-2.89-3.43zm-1.134 2.424c.127-.657.53-1.1 1.143-1.1.634 0 1.058.443 1.058 1.1zM130.74.35V8.2h1.884V.35zM134.17.35V8.2h1.885V.35zM141.37 4.286l.635-1.227c-.72-.435-1.555-.668-2.38-.668-1.345 0-2.35.656-2.35 1.852 0 1.98 2.952 1.587 2.952 2.37 0 .233-.254.35-.603.35-.635 0-1.376-.254-2.032-.71L137 7.473c.698.54 1.62.815 2.582.815 1.397 0 2.423-.667 2.423-1.842.01-1.99-2.995-1.63-2.995-2.38 0-.244.223-.36.54-.36.466 0 1.11.21 1.82.58zM146.72 4.56l1.366-.792c-.497-.858-1.407-1.355-2.56-1.355-1.78 0-2.964 1.175-2.964 2.953 0 1.746 1.175 2.9 2.942 2.9 1.217 0 2.148-.498 2.603-1.376l-1.386-.794c-.232.444-.623.646-1.12.646-.678 0-1.144-.55-1.144-1.387 0-.825.466-1.386 1.143-1.386.486 0 .867.22 1.12.59zM152.812 2.402c-.836 0-1.492.35-1.895 1.006V.348h-1.883v7.854h1.883V5.376c0-.75.424-1.28 1.122-1.29.602 0 .973.4.973 1.047v3.07h1.884v-3.61c0-1.344-.826-2.19-2.085-2.19zM158.756 2.402c-.942 0-1.767.223-2.667.625l.518 1.27c.614-.296 1.238-.455 1.714-.455.72 0 1.09.317 1.09.857v.063h-1.492c-1.418.02-2.19.645-2.19 1.735 0 1.048.73 1.79 1.957 1.79.773 0 1.355-.255 1.725-.73V8.2h1.853V4.477c-.01-1.313-.932-2.075-2.51-2.075zm-.487 4.604c-.487 0-.773-.254-.773-.645 0-.402.264-.592.794-.592h1.122v.497c-.116.434-.582.74-1.143.74zM165.398 1.767c.2 0 .455.085.656.233l.656-1.333c-.434-.254-1.058-.402-1.63-.402-1.248-.01-2.2.698-2.2 1.958v.53h-.773V4h.772v4.202h1.872v-4.2h1.27V2.75h-1.27v-.37c0-.413.276-.615.646-.615zM170.205 6.572c-.275.117-.518.19-.71.19-.327.01-.517-.18-.517-.603V4h1.48V2.752h-1.48V1.164h-1.873v1.588h-.794V4h.795v2.456c0 1.185.804 1.84 1.915 1.83.56 0 1.133-.137 1.545-.38zM181.787 8.202l-2.92-4.35 2.75-3.07h-2.243l-2.784 3.113V.783h-1.937v7.42h1.937v-1.81l.953-1.06 1.926 2.87zM185.153 2.402c-.942 0-1.768.223-2.667.625l.518 1.27c.614-.296 1.238-.455 1.715-.455.718 0 1.09.317 1.09.857v.063h-1.493c-1.42.02-2.19.645-2.19 1.735 0 1.048.73 1.79 1.957 1.79.772 0 1.354-.255 1.725-.73V8.2h1.85V4.477c-.01-1.313-.93-2.075-2.507-2.075zm-.487 4.604c-.487 0-.773-.254-.773-.645 0-.402.265-.592.794-.592h1.122v.497c-.118.434-.583.74-1.144.74zM190.82 3.43v-.953h-1.883v5.725h1.884v-2.92c.096-.795.794-1.26 1.842-1.154V2.402c-.804 0-1.45.37-1.84 1.027zM193.537.35V8.2h1.884V.35zM200.736 4.286l.635-1.227c-.718-.435-1.555-.668-2.38-.668-1.344 0-2.35.656-2.35 1.852 0 1.98 2.953 1.587 2.953 2.37 0 .233-.254.35-.603.35-.635 0-1.376-.254-2.032-.71l-.593 1.218c.7.54 1.62.815 2.583.815 1.397 0 2.423-.667 2.423-1.842.012-1.99-2.994-1.63-2.994-2.38 0-.244.222-.36.54-.36.466 0 1.11.21 1.82.58zM204.277 3.43v-.953h-1.884v5.725h1.884v-2.92c.095-.795.794-1.26 1.842-1.154V2.402c-.806 0-1.45.37-1.843 1.027zM210.645 2.477v2.825c0 .752-.402 1.28-1.07 1.29-.56 0-.92-.39-.92-1.036v-3.08h-1.883v3.62c0 1.334.804 2.19 2.042 2.19.815-.01 1.44-.348 1.83-1.015v.932h1.885V2.477zM217.8 2.402c-.836 0-1.492.35-1.894 1.006V.348h-1.884v7.854h1.884V5.376c0-.75.423-1.28 1.12-1.29.605 0 .975.4.975 1.047v3.07h1.885v-3.61c0-1.344-.826-2.19-2.085-2.19zM223.68 2.413c-1.788 0-2.983 1.175-2.983 2.953 0 1.746 1.153 2.9 3.026 2.9 1.06 0 1.916-.36 2.498-1.016l-.983-.985c-.38.38-.857.582-1.344.582-.646 0-1.122-.36-1.302-1.005h3.98c.127-2.085-.89-3.43-2.89-3.43zm-1.13 2.424c.126-.657.528-1.1 1.142-1.1.635 0 1.058.443 1.058 1.1z" style="-inkscape-font-specification:'Montserrat Bold'"/></g></svg>