<?xml version="1.0" encoding="UTF-8"?>
<svg width="62.104mm" height="15.02mm" version="1.1" viewBox="0 0 62.10376 15.020262" xmlns="http://www.w3.org/2000/svg" xmlns:cc="http://creativecommons.org/ns#" xmlns:dc="http://purl.org/dc/elements/1.1/" xmlns:rdf="http://www.w3.org/1999/02/22-rdf-syntax-ns#">
<defs>
<clipPath id="d">
<path d="M 0,841.89 H 595.28 V 0 H 0 Z"/>
</clipPath>
<radialGradient id="b" cx="0" cy="0" r="1" gradientTransform="matrix(16.276 0 0 -16.276 82.623 637.85)" gradientUnits="userSpaceOnUse">
<stop stop-color="#fff" offset="0"/>
<stop stop-color="#8f8b8d" offset="1"/>
</radialGradient>
<radialGradient id="a" cx="0" cy="0" r="1" gradientTransform="matrix(16.379 0 0 -16.379 97.606 631.96)" gradientUnits="userSpaceOnUse">
<stop stop-color="#fff" offset="0"/>
<stop stop-color="#1c4f9c" offset="1"/>
</radialGradient>
<clipPath id="c">
<path d="M 0,841.89 H 595.28 V 0 H 0 Z"/>
</clipPath>
</defs>
<metadata>
<rdf:RDF>
<cc:Work rdf:about="">
<dc:format>image/svg+xml</dc:format>
<dc:type rdf:resource="http://purl.org/dc/dcmitype/StillImage"/>
<dc:title/>
</cc:Work>
</rdf:RDF>
</metadata>
<g transform="translate(-138.3 -9.8114)">
<g transform="matrix(.35278 0 0 -.35278 213.93 284.87)">
<g transform="translate(-284.95 122.75)">
<g clip-path="url(#d)">
<g transform="translate(246.26 646.13)">
<path d="m0 0c0 0.784-0.276 1.454-0.829 2.009-0.554 0.554-1.223 0.833-2.011 0.833-0.783 0-1.453-0.279-2.006-0.833-0.552-0.555-0.831-1.225-0.831-2.009 0-0.782 0.279-1.451 0.831-2.007 0.553-0.556 1.223-0.832 2.006-0.832 0.788 0 1.457 0.276 2.011 0.832 0.553 0.556 0.829 1.225 0.829 2.007m0.357 0c0-0.882-0.31-1.634-0.935-2.259-0.621-0.624-1.374-0.936-2.257-0.936s-1.635 0.312-2.26 0.936c-0.624 0.625-0.936 1.377-0.936 2.259 0 0.883 0.312 1.638 0.936 2.262 0.625 0.623 1.377 0.935 2.26 0.935s1.636-0.312 2.257-0.935c0.625-0.624 0.935-1.379 0.935-2.262" fill="#8f8b8d" fill-rule="evenodd"/>
</g>
</g>
</g>
<g transform="translate(-285.24 122.07)">
<path d="m73.721 646.99c-5.83-10.098-2.444-22.985 7.546-28.931l0.03 0.052c0.192 2.249 1.772 20.879 2.191 25.506 0.493 5.429 7.615 11.417 10.892 13.904-0.734 0.077-1.47 0.115-2.204 0.115-7.357 0-14.512-3.818-18.455-10.646" fill="url(#b)"/>
</g>
<g transform="translate(-285.24 122.07)">
<path d="m102.79 632.48c-3.799-2.678-19.144-13.362-20.996-14.65l-0.03-0.052c10.144-5.679 23-2.167 28.83 7.93 4.336 7.511 3.575 16.562-1.208 23.154-0.515-4.08-2.14-13.241-6.596-16.382" fill="url(#a)"/>
</g>
<g transform="translate(-284.86 122.73)">
<g clip-path="url(#c)">
<g transform="translate(242.73 646.41)">
<path d="m0 0h0.483c0.54 0 0.861 0.239 0.861 0.621 0 0.358-0.274 0.585-0.798 0.585h-0.546zm-0.569 1.707h0.973c0.785 0 1.542-0.125 1.542-1.075 0-0.484-0.358-0.825-0.82-0.904v-0.012c0.177-0.069 0.263-0.154 0.388-0.399l0.751-1.582h-0.649l-0.608 1.377c-0.177 0.388-0.364 0.388-0.667 0.388h-0.341v-1.765h-0.569z" fill="#8f8b8d"/>
</g>
<g transform="translate(142 634.77)">
<path d="m0 0c0-0.725-0.166-1.266-0.497-1.623-0.33-0.356-0.831-0.536-1.503-0.536-0.652 0-1.151 0.183-1.496 0.551-0.345 0.367-0.564 0.902-0.564 1.608v7.26c0 0.696-0.246 1.239-0.64 1.627-0.395 0.39-0.851 0.585-1.558 0.585-0.792 0-1.325-0.246-1.79-0.739-0.465-0.491-0.696-1.165-0.696-2.023v-6.71c0-0.715-0.262-1.254-0.596-1.616-0.335-0.361-0.832-0.543-1.491-0.543-0.66 0-1.152 0.18-1.478 0.536-0.326 0.357-0.535 0.898-0.535 1.623v7.236c0 0.705-0.238 1.249-0.619 1.633-0.382 0.384-0.808 0.55-1.564 0.55-0.634 0-1.516-0.428-1.757-0.805-0.461-0.491-0.691-1.071-0.691-1.926v-6.688c0-0.715-0.261-1.254-0.597-1.616-0.335-0.361-0.838-0.543-1.51-0.543-0.662 0-1.029 0.175-1.364 0.536-0.336 0.362-0.588 0.908-0.588 1.623 0 0-0.01 6.957-0.01 7.971 0.204 2.93 2.485 5.214 6.558 5.214 1.737-0.027 3.604-0.416 4.464-1.914 1.552 1.523 2.901 1.788 4.536 1.916 3.889-0.128 5.835-2.416 5.986-4.807 4e-3 -1.551 0-8.38 0-8.38" fill="#8f8b8d"/>
</g>
<g transform="translate(211.03 634.77)">
<path d="m0 0c0-0.725-0.166-1.266-0.496-1.623-0.331-0.356-0.83-0.536-1.501-0.536-0.649 0-1.15 0.183-1.492 0.551-0.345 0.367-0.565 0.902-0.565 1.608v7.26c0 0.696-0.244 1.239-0.636 1.627-0.395 0.39-0.853 0.585-1.559 0.585-0.789 0-1.321-0.246-1.785-0.739-0.464-0.491-0.695-1.165-0.695-2.023v-6.71c0-0.715-0.262-1.254-0.595-1.616-0.333-0.361-0.832-0.543-1.488-0.543-0.66 0-1.15 0.18-1.476 0.536-0.325 0.357-0.534 0.898-0.534 1.623v7.236c0 0.705-0.24 1.249-0.617 1.633-0.382 0.384-0.808 0.55-1.563 0.55-0.633 0-1.513-0.428-1.755-0.805-0.461-0.491-0.689-1.071-0.689-1.926v-6.688c0-0.715-0.26-1.254-0.596-1.616-0.333-0.361-0.835-0.543-1.507-0.543-0.66 0-1.027 0.175-1.362 0.536-0.336 0.362-0.586 0.908-0.586 1.623 0 0-0.011 6.957-0.011 7.971 0.202 2.93 2.483 5.214 6.548 5.214 1.734-0.027 3.598-0.416 4.455-1.914 1.551 1.523 2.898 1.788 4.529 1.916 3.882-0.128 5.825-2.416 5.976-4.807 5e-3 -1.551 0-8.38 0-8.38" fill="#8f8b8d"/>
</g>
<g transform="translate(148.64 642.14)">
<path d="m0 0c0.967 0 5.221-1e-3 6.181 0 0.18 0.753-1.22 2.726-3.035 2.698-2.049 0-3.112-1.608-3.146-2.698m-0.188-2.966c0.048-1.165 0.463-1.922 1.051-2.532 0.589-0.61 1.381-0.83 2.438-0.83 0.485 0 0.785 0.051 1.193 0.182 0.408 0.129 0.728 0.394 1.037 0.648 0.078 0.064 0.32 0.325 0.424 0.458 0.64 0.812 1.344 0.985 1.878 0.985 0.476 0 0.87-0.19 1.187-0.475 0.314-0.283 0.501-0.658 0.519-1.393-0.014-0.353-0.132-0.612-0.302-0.914-0.17-0.304-0.428-0.612-0.777-0.928-0.68-0.596-1.377-1.096-2.332-1.417-0.954-0.32-2.11-0.438-3.233-0.438-2.288 0-4.014 0.867-5.351 2.279-1.338 1.414-2.091 3.17-2.091 5.589 0 2.382 0.747 4.218 2.065 5.592s3.033 2.153 5.321 2.15c2.485-2e-3 4.087-0.691 5.416-2.02 1.219-1.22 2.022-2.75 2.143-5.131 0.033-0.638-0.308-1.068-0.561-1.303-0.312-0.362-0.703-0.502-1.715-0.502h-0.449z" fill="#8f8b8d"/>
</g>
<g transform="translate(217.65 642.14)">
<path d="m0 0c0.966 0 5.212-1e-3 6.17 0 0.182 0.753-1.218 2.726-3.029 2.698-2.047 0-3.107-1.608-3.141-2.698m-0.188-2.966c0.047-1.165 0.462-1.922 1.051-2.532 0.587-0.61 1.378-0.83 2.433-0.83 0.484 0 0.782 0.051 1.191 0.182 0.407 0.129 0.727 0.394 1.036 0.648 0.077 0.064 0.319 0.325 0.421 0.458 0.641 0.812 1.342 0.985 1.875 0.985 0.476 0 0.87-0.19 1.186-0.475 0.312-0.283 0.499-0.658 0.517-1.393-0.014-0.353-0.13-0.612-0.3-0.914-0.17-0.304-0.429-0.612-0.777-0.928-0.677-0.596-1.376-1.096-2.326-1.417-0.954-0.32-2.108-0.438-3.228-0.438-2.284 0-4.007 0.867-5.344 2.279-1.333 1.414-2.085 3.17-2.085 5.589 0 2.382 0.746 4.218 2.06 5.592 1.315 1.374 3.027 2.106 5.312 2.102 2.48-2e-3 4.08-0.643 5.406-1.972 1.218-1.22 2.021-2.75 2.141-5.131 0.032-0.638-0.31-1.068-0.562-1.303-0.311-0.362-0.7-0.502-1.711-0.502h-0.449z" fill="#8f8b8d"/>
</g>
<g transform="translate(169 635.86)">
<path d="m0 0c0.318 0.244 0.552 0.761 0.552 1.229-0.026 0.572-0.625 1.041-2.178 1.402l-1.712 0.389c-1.874 0.436-3.202 0.911-3.996 1.588-0.795 0.678-1.19 1.584-1.19 2.718 0 1.489 0.524 2.554 1.632 3.424 1.168 1.037 2.64 1.419 4.534 1.419 1.665 0 2.933-0.269 4.05-0.885 1.462-0.846 1.947-1.711 2.036-2.831-0.039-0.894-0.661-1.596-1.909-1.569-1.215 0.286-0.998 0.921-1.799 1.541-0.139 0.109-0.245 0.191-0.318 0.246-0.213 0.165-0.508 0.35-0.885 0.465-0.379 0.113-0.82 0.186-1.171 0.186-0.746 0-1.365-0.132-1.737-0.362-0.374-0.231-0.7-0.525-0.7-0.985 0-0.363 0.353-0.785 0.695-0.984 0.342-0.198 1.129-0.428 2.359-0.69l1.248-0.266c1.9-0.411 3.234-0.946 4.006-1.607 0.77-0.659 1.054-1.487 1.156-2.754-0.102-1.56-0.646-2.733-1.761-3.64-1.196-0.864-2.969-1.429-5.258-1.429-1.785 0-3.015 0.448-4.286 1.252-1.174 0.701-1.997 2.094-1.997 2.828 0 0.908 0.649 1.735 1.896 1.735 0.569 0 1.285-0.49 1.808-1.489 1.145-2.218 4.388-1.387 4.925-0.931" fill="#8f8b8d"/>
</g>
<g transform="translate(183.54 635.86)">
<path d="m0 0c0.318 0.244 0.552 0.761 0.552 1.229-0.028 0.572-0.623 1.041-2.177 1.402l-1.712 0.389c-1.873 0.436-3.201 0.911-3.995 1.588-0.795 0.678-1.191 1.584-1.191 2.718 0 1.489 0.525 2.554 1.632 3.424 1.168 1.037 2.639 1.419 4.535 1.419 1.665 0 2.931-0.269 4.046-0.885 1.459-0.846 1.943-1.711 2.031-2.831-0.037-0.894-0.658-1.596-1.905-1.569-1.212 0.286-0.997 0.921-1.796 1.541-0.138 0.109-0.245 0.191-0.317 0.246-0.213 0.165-0.508 0.35-0.886 0.465-0.378 0.113-0.819 0.186-1.169 0.186-0.747 0-1.364-0.132-1.737-0.362-0.375-0.231-0.7-0.525-0.7-0.985 0-0.363 0.353-0.785 0.695-0.984 0.342-0.198 1.128-0.428 2.359-0.69l1.248-0.266c1.895-0.411 3.226-0.946 3.996-1.607 0.77-0.659 1.055-1.487 1.155-2.754-0.1-1.56-0.644-2.733-1.757-3.64-1.192-0.864-2.963-1.429-5.252-1.429-1.784 0-3.014 0.448-4.286 1.252-1.174 0.701-1.997 2.094-1.997 2.828 0 0.908 0.649 1.735 1.897 1.735 0.568 0 1.284-0.49 1.806-1.489 1.148-2.218 4.389-1.387 4.925-0.931" fill="#8f8b8d"/>
</g>
<g transform="translate(233.54 640.43)">
<path d="m0 0v-5.78c0-0.714-0.165-1.25-0.489-1.612-0.325-0.36-0.908-0.541-1.557-0.541-0.642 0-1.174 0.181-1.498 0.541-0.327 0.362-0.488 0.898-0.488 1.612v7.276c0.105 1.98 0.262 2.171 0.461 2.666 1.15 2.843 3.671 3.197 5.193 3.308 4.774-0.026 3.607-3.346 1.428-3.424-2.932-0.078-3.05-2.8-3.05-4.046" fill="#8f8b8d"/>
</g>
<g transform="translate(165.02 624.91)">
<path d="m0 0c0 0.151 0.028 0.297 0.086 0.437 0.059 0.14 0.141 0.263 0.248 0.372 0.11 0.109 0.236 0.192 0.376 0.251 0.139 0.057 0.284 0.086 0.438 0.086 0.149 0 0.293-0.029 0.436-0.087 0.141-0.059 0.266-0.141 0.372-0.246 0.105-0.104 0.188-0.228 0.246-0.372 0.059-0.142 0.089-0.29 0.089-0.441 0-0.15-0.03-0.297-0.089-0.438-0.058-0.142-0.141-0.267-0.248-0.375-0.108-0.109-0.23-0.192-0.368-0.25-0.14-0.057-0.286-0.086-0.44-0.086-0.153 0-0.298 0.029-0.436 0.086-0.139 0.058-0.263 0.141-0.374 0.25-0.109 0.107-0.192 0.231-0.25 0.372-0.058 0.138-0.086 0.286-0.086 0.441" fill="#1c4f9c"/>
</g>
<g transform="translate(121.34 623.01)">
<path d="m0 0h0.706c1.159 0 1.798 0.559 1.798 1.771 0 1.098-0.747 1.744-1.717 1.744h-0.787zm-0.674 4.108h1.387c1.394 0 2.505-0.861 2.505-2.309 0-1.576-0.956-2.392-2.505-2.392h-1.387z" fill="#8f8b8d"/>
</g>
<g transform="translate(125.71 627.12)">
<path d="m0 0h2.633v-0.594h-1.96v-1.373h1.784v-0.593h-1.784v-1.548h1.96v-0.593h-2.633z" fill="#8f8b8d"/>
</g>
<g transform="translate(131.66 626.41)">
<path d="m0 0c-0.344 0.135-0.532 0.196-0.883 0.196-0.377 0-0.821-0.134-0.821-0.626 0-0.903 2.02-0.694 2.02-2.243 0-1.003-0.775-1.4-1.716-1.4-0.331 0-0.654 0.094-0.963 0.195l0.066 0.626c0.23-0.094 0.634-0.228 0.977-0.228 0.383 0 0.923 0.215 0.923 0.767 0 1.051-2.021 0.761-2.021 2.223 0 0.834 0.66 1.279 1.509 1.279 0.309 0 0.68-0.054 1.003-0.168z" fill="#8f8b8d"/>
</g>
<path d="m132.99 627.12h0.674v-4.701h-0.674z" fill="#8f8b8d"/>
<g transform="translate(138.53 626.29)">
<path d="m0 0c-0.33 0.216-0.688 0.323-1.293 0.323-1.084 0-1.804-0.788-1.804-1.839 0-1.103 0.794-1.838 1.771-1.838 0.464 0 0.585 0.047 0.754 0.081v1.427h-0.991v0.553h1.664v-2.445c-0.256-0.087-0.701-0.208-1.435-0.208-1.487 0-2.477 0.956-2.477 2.451 0 1.447 1.05 2.411 2.485 2.411 0.686 0 0.989-0.102 1.38-0.235z" fill="#8f8b8d"/>
</g>
<g transform="translate(139.92 627.12)">
<path d="m0 0h0.916l2.073-3.785h0.014v3.785h0.674v-4.701h-0.863l-2.127 3.866h-0.013v-3.866h-0.674z" fill="#8f8b8d"/>
</g>
<g transform="translate(147.5 624.89)">
<path d="m0 0h0.666c0.418 0 0.943 0.209 0.943 0.828 0 0.593-0.62 0.808-1.037 0.808h-0.572zm-0.674 2.229h1.233c0.962 0 1.763-0.336 1.763-1.407 0-1.044-0.814-1.415-1.663-1.415h-0.659v-1.879h-0.674z" fill="#8f8b8d"/>
</g>
<g transform="translate(150.75 627.12)">
<path d="m0 0h2.633v-0.594h-1.959v-1.373h1.784v-0.593h-1.784v-1.548h1.959v-0.593h-2.633z" fill="#8f8b8d"/>
</g>
<g transform="translate(154.56 627.12)">
<path d="m0 0h0.916l2.073-3.785h0.014v3.785h0.673v-4.701h-0.862l-2.127 3.866h-0.014v-3.866h-0.673z" fill="#8f8b8d"/>
</g>
<g transform="translate(161.66 626.41)">
<path d="m0 0c-0.343 0.135-0.531 0.196-0.882 0.196-0.377 0-0.821-0.134-0.821-0.626 0-0.903 2.019-0.694 2.019-2.243 0-1.003-0.774-1.4-1.716-1.4-0.33 0-0.653 0.094-0.962 0.195l0.066 0.626c0.23-0.094 0.633-0.228 0.977-0.228 0.383 0 0.923 0.215 0.923 0.767 0 1.051-2.021 0.761-2.021 2.223 0 0.834 0.66 1.279 1.508 1.279 0.309 0 0.68-0.054 1.004-0.168z" fill="#8f8b8d"/>
</g>
<g transform="translate(170.85 627.12)">
<path d="m0 0h2.498v-0.594h-1.824v-1.373h1.744v-0.593h-1.744v-2.141h-0.674z" fill="#8f8b8d"/>
</g>
<g transform="translate(176.38 622.93)">
<path d="m0 0c1.085 0 1.55 0.902 1.55 1.838 0 0.956-0.512 1.846-1.55 1.839-1.036 7e-3 -1.548-0.883-1.548-1.839 0-0.936 0.465-1.838 1.548-1.838m0 4.27c1.429 0 2.263-1.038 2.263-2.432 0-1.428-0.827-2.431-2.263-2.431-1.434 0-2.262 1.003-2.262 2.431 0 1.394 0.835 2.432 2.262 2.432" fill="#8f8b8d"/>
</g>
<g transform="translate(180.34 625.1)">
<path d="m0 0h0.572c0.64 0 1.018 0.283 1.018 0.734 0 0.425-0.324 0.693-0.944 0.693h-0.646zm-0.674 2.021h1.153c0.928 0 1.824-0.149 1.824-1.273 0-0.573-0.424-0.977-0.969-1.072v-0.012c0.208-0.081 0.31-0.183 0.457-0.472l0.89-1.873h-0.769l-0.72 1.631c-0.21 0.457-0.43 0.457-0.788 0.457h-0.404v-2.088h-0.674z" fill="#8f8b8d"/>
</g>
<g transform="translate(187.21 624.39)">
<path d="m0 0-1.838 2.734h0.788l1.401-2.107 1.367 2.107h0.788l-1.833-2.734v-1.967h-0.673z" fill="#8f8b8d"/>
</g>
<g transform="translate(192.51 622.93)">
<path d="m0 0c1.083 0 1.548 0.902 1.548 1.838 0 0.956-0.51 1.846-1.548 1.839-1.037 7e-3 -1.549-0.883-1.549-1.839 0-0.936 0.465-1.838 1.549-1.838m0 4.27c1.428 0 2.263-1.038 2.263-2.432 0-1.428-0.829-2.431-2.263-2.431-1.435 0-2.262 1.003-2.262 2.431 0 1.394 0.835 2.432 2.262 2.432" fill="#8f8b8d"/>
</g>
<g transform="translate(199.49 624.37)">
<path d="m0 0c0-1.319-0.666-2.026-1.825-2.026-1.157 0-1.825 0.707-1.825 2.026v2.755h0.674v-2.666c0-0.902 0.282-1.523 1.151-1.523 0.868 0 1.151 0.621 1.151 1.523v2.666h0.674z" fill="#8f8b8d"/>
</g>
<g transform="translate(201.43 625.1)">
<path d="m0 0h0.572c0.64 0 1.016 0.283 1.016 0.734 0 0.425-0.321 0.693-0.942 0.693h-0.646zm-0.673 2.021h1.15c0.928 0 1.825-0.149 1.825-1.273 0-0.573-0.424-0.977-0.97-1.072v-0.012c0.21-0.081 0.31-0.183 0.458-0.472l0.89-1.873h-0.768l-0.722 1.631c-0.207 0.457-0.43 0.457-0.787 0.457h-0.403v-2.088h-0.673z" fill="#8f8b8d"/>
</g>
<g transform="translate(209.12 626.41)">
<path d="m0 0c-0.343 0.135-0.532 0.196-0.882 0.196-0.378 0-0.821-0.134-0.821-0.626 0-0.903 2.02-0.694 2.02-2.243 0-1.003-0.776-1.4-1.717-1.4-0.331 0-0.653 0.094-0.963 0.195l0.067 0.626c0.229-0.094 0.633-0.228 0.976-0.228 0.384 0 0.923 0.215 0.923 0.767 0 1.051-2.021 0.761-2.021 2.223 0 0.834 0.66 1.279 1.51 1.279 0.309 0 0.678-0.054 1.003-0.168z" fill="#8f8b8d"/>
</g>
<g transform="translate(214.11 624.37)">
<path d="m0 0c0-1.319-0.666-2.026-1.823-2.026-1.159 0-1.825 0.707-1.825 2.026v2.755h0.674v-2.666c0-0.902 0.281-1.523 1.151-1.523 0.868 0 1.151 0.621 1.151 1.523v2.666h0.672z" fill="#8f8b8d"/>
</g>
<g transform="translate(218.67 626.35)">
<path d="m0 0c-0.296 0.175-0.626 0.263-0.97 0.263-1.084 0-1.804-0.782-1.804-1.839 0-1.104 0.794-1.838 1.77-1.838 0.337 0 0.788 0.088 1.025 0.228l0.04-0.652c-0.357-0.149-0.794-0.169-1.072-0.169-1.488 0-2.476 0.956-2.476 2.451 0 1.448 1.049 2.411 2.483 2.411 0.364 0 0.721-0.053 1.059-0.203z" fill="#8f8b8d"/>
</g>
<g transform="translate(222.89 626.35)">
<path d="m0 0c-0.295 0.175-0.626 0.263-0.97 0.263-1.084 0-1.804-0.782-1.804-1.839 0-1.104 0.794-1.838 1.77-1.838 0.338 0 0.788 0.088 1.025 0.228l0.04-0.652c-0.356-0.149-0.794-0.169-1.071-0.169-1.489 0-2.477 0.956-2.477 2.451 0 1.448 1.05 2.411 2.483 2.411 0.364 0 0.721-0.053 1.059-0.203z" fill="#8f8b8d"/>
</g>
<g transform="translate(223.89 627.12)">
<path d="m0 0h2.632v-0.594h-1.96v-1.373h1.785v-0.593h-1.785v-1.548h1.96v-0.593h-2.632z" fill="#8f8b8d"/>
</g>
<g transform="translate(229.84 626.41)">
<path d="m0 0c-0.344 0.135-0.531 0.196-0.883 0.196-0.376 0-0.82-0.134-0.82-0.626 0-0.903 2.018-0.694 2.018-2.243 0-1.003-0.773-1.4-1.716-1.4-0.328 0-0.653 0.094-0.962 0.195l0.067 0.626c0.229-0.094 0.632-0.228 0.976-0.228 0.384 0 0.923 0.215 0.923 0.767 0 1.051-2.019 0.761-2.019 2.223 0 0.834 0.658 1.279 1.507 1.279 0.309 0 0.68-0.054 1.003-0.168z" fill="#8f8b8d"/>
</g>
<g transform="translate(233.31 626.41)">
<path d="m0 0c-0.343 0.135-0.531 0.196-0.883 0.196-0.376 0-0.82-0.134-0.82-0.626 0-0.903 2.018-0.694 2.018-2.243 0-1.003-0.772-1.4-1.716-1.4-0.328 0-0.653 0.094-0.962 0.195l0.067 0.626c0.229-0.094 0.633-0.228 0.976-0.228 0.384 0 0.923 0.215 0.923 0.767 0 1.051-2.021 0.761-2.021 2.223 0 0.834 0.66 1.279 1.509 1.279 0.309 0 0.68-0.054 1.003-0.168z" fill="#8f8b8d"/>
</g>
</g>
</g>
</g>
</g>
</svg>
