<svg xmlns="http://www.w3.org/2000/svg" viewBox="0 0 774.63287 127.59122" height="127.591" width="774.633"><g fill="#096297" clip-rule="evenodd" fill-rule="evenodd"><path d="M0 17.58c1.343 2.414 3.222 4.014 5.524 5.405 12.99 7.85 25.87 15.888 38.867 23.727 4.37 2.635 7.48 6.183 9.422 10.835 4.93 11.818 9.855 23.64 14.784 35.462.283.68.58 1.353 1.056 2.038.416-2.933 1.212-5.614 3.418-7.68 2.26-2.116 4.938-2.862 7.956-2.587 4.538.414 7.616 4.03 8.698 10.592.473-.97.807-1.58 1.075-2.216 4.95-11.75 9.923-23.49 14.825-35.26 2.056-4.935 5.18-8.803 9.84-11.593 12.67-7.584 25.217-15.37 37.862-22.997 2.452-1.48 4.787-2.952 6.094-5.677v1.177c0 31.625.012 63.25-.026 94.876-.002 1.865-.246 3.762-.644 5.586-1.026 4.702-4.138 7.45-8.924 7.95-2.16.226-4.34.356-6.51.356-42.992.02-85.983.024-128.975-.01-1.982-.002-3.998-.226-5.94-.635-4.74-.997-7.484-4.067-8.024-8.855-.23-2.04-.358-4.104-.36-6.157C-.006 81.118 0 50.316 0 19.515V17.58z"/><path d="M99.537 22.13c1.5-1.85 2.87-3.832 4.53-5.528 3.373-3.443 6.798-6.85 10.4-10.05 3.523-3.134 8.08-4.208 12.477-5.482 1.68-.487 3.442-.705 5.177-.98 1.673-.264 2.365.304 2.277 1.975-.235 4.406-2.658 7.617-6.327 9.564-8.253 4.377-16.817 8.1-25.776 10.837-.748.23-1.58.187-2.372.273l-.385-.61zM61.926 22.835c-1.124-.213-2.325-.24-3.36-.668-8.127-3.37-16.31-6.63-24.288-10.324-3.944-1.827-6.51-5.19-6.758-9.82-.084-1.56.624-2.213 2.138-1.976C37.86 1.33 45.57 3.673 51.434 10.085c2.777 3.036 5.725 5.914 8.524 8.93.895.965 1.56 2.144 2.327 3.225l-.36.595z"/></g><g fill="#096297"><path d="M250.45 36.4v61.34c0 3.77-3.06 6.83-6.828 6.83-3.767 0-6.83-3.06-6.83-6.83V36.4H218.78c-3.298 0-6.006-2.71-6.006-6.005 0-3.297 2.708-6.005 6.005-6.005h49.685c3.297 0 6.004 2.708 6.004 6.005 0 3.296-2.708 6.004-6.005 6.004zM290.726 83.024l-7.183 17.072c-1.06 2.472-3.296 4.474-6.357 4.474-3.65 0-6.71-3.06-6.71-6.71 0-.707.116-1.65.47-2.474l27.786-67.7c.707-1.648 2.59-4.238 6.24-4.238 3.65 0 5.534 2.59 6.24 4.24L339 95.385c.352.824.47 1.767.47 2.473 0 3.65-3.062 6.71-6.712 6.71-3.06 0-5.298-2.002-6.358-4.474l-7.18-17.072zm14.246-37.206l-9.654 24.726h19.31zM364.533 73.25v24.49c0 3.77-3.06 6.83-6.83 6.83-3.766 0-6.827-3.06-6.827-6.83V31.22c0-3.77 3.06-6.83 6.828-6.83h22.488c15.895 0 24.842 11.303 24.842 24.607 0 11.185-6.828 22.018-18.13 23.43l17.425 21.193c1.058 1.413 1.41 2.826 1.41 4.12 0 3.77-3.06 6.83-6.828 6.83-2 0-4.12-.942-5.298-2.472L372.187 73.25zm0-36.615v24.607h15.895c7.3 0 10.478-6.005 10.478-12.245 0-6.358-3.178-12.362-10.832-12.362zM433.17 97.74c0 3.77-3.06 6.83-6.826 6.83-3.77 0-6.83-3.06-6.83-6.83V30.278c0-3.768 3.06-6.83 6.83-6.83 3.766 0 6.827 3.062 6.827 6.83zM463.934 97.74c0 3.77-3.062 6.83-6.828 6.83-3.768 0-6.83-3.06-6.83-6.83V31.22c0-3.77 3.062-6.83 6.83-6.83h36.734c3.415 0 6.122 2.708 6.122 6.123 0 3.414-2.707 6.122-6.122 6.122h-29.906v21.78h22.253c3.297 0 6.004 2.71 6.004 6.006 0 3.298-2.706 6.006-6.003 6.006h-22.253z" fill="#373737"/><path d="M526.12 97.74c0 3.77-3.06 6.83-6.827 6.83-3.77 0-6.83-3.06-6.83-6.83V31.22c0-3.77 3.06-6.83 6.83-6.83h36.733c3.415 0 6.122 2.708 6.122 6.123 0 3.414-2.707 6.122-6.122 6.122H526.12v21.78h22.253c3.298 0 6.005 2.71 6.005 6.006 0 3.298-2.707 6.006-6.005 6.006H526.12zM574.65 77.725V30.277c0-3.768 3.06-6.83 6.83-6.83 3.765 0 6.826 3.062 6.826 6.83v47.448c0 7.183 2.71 15.542 16.014 15.542 13.303 0 16.012-8.36 16.012-15.542V30.277c0-3.768 3.062-6.83 6.83-6.83 3.766 0 6.826 3.062 6.826 6.83v47.448c0 13.423-5.884 27.55-29.668 27.55-23.785 0-29.67-14.127-29.67-27.55zM674.477 74.664l-18.132 26.845c-1.415 2-3.298 3.06-5.652 3.06-3.768 0-6.83-3.06-6.83-6.83 0-1.53.472-2.825 1.177-3.767l22.02-30.847-20.49-28.846c-.823-1.178-1.294-2.473-1.294-4.003 0-3.768 3.062-6.83 6.83-6.83 2.353 0 4.24.943 5.534 2.826l16.837 25.08 16.836-25.08c1.294-1.883 3.177-2.825 5.534-2.825 3.768 0 6.83 3.06 6.83 6.83 0 1.53-.472 2.824-1.296 4.002l-20.486 28.846 22.016 30.847c.707.942 1.178 2.237 1.178 3.768 0 3.77-3.06 6.83-6.83 6.83-2.353 0-4.238-1.06-5.65-3.06zM744.02 74.664l-18.13 26.845c-1.415 2-3.298 3.06-5.652 3.06-3.768 0-6.83-3.06-6.83-6.83 0-1.53.472-2.825 1.177-3.767l22.02-30.847-20.49-28.846c-.823-1.178-1.294-2.473-1.294-4.003 0-3.768 3.062-6.83 6.83-6.83 2.354 0 4.24.943 5.535 2.826l16.836 25.08 16.837-25.08c1.295-1.883 3.178-2.825 5.535-2.825 3.767 0 6.83 3.06 6.83 6.83 0 1.53-.472 2.824-1.296 4.002l-20.488 28.846 22.017 30.847c.707.942 1.178 2.237 1.178 3.768 0 3.77-3.06 6.83-6.83 6.83-2.353 0-4.24-1.06-5.65-3.06z"/></g></svg>