<svg xmlns="http://www.w3.org/2000/svg" viewBox="0 0 500 500" height="500" width="500"><path clip-rule="evenodd" fill="#3c3c3c" fill-rule="evenodd" d="M127.197 136.95h16.784v95.11h-16.783zM54.466 136.95H71.25v95.11H54.466z"/><path clip-rule="evenodd" fill="#3c3c3c" fill-rule="evenodd" d="M54.466 220.872h89.515v16.783H54.467zM54.466 136.95h89.515v16.785H54.467zM411.554 265.843c-11.585 8.95-18.645 8.95-30.23 0-17.374-13.41-34.983-13.41-52.342 0-12.36 9.543-18.375 8.294-29.113.003-8.603-6.648-16.91-9.982-25.222-10.01v17.487c4.694.037 9.4 2.213 15.007 6.544 17.59 13.585 31.94 13.585 49.54-.003 11.18-8.637 20.726-8.637 31.916.003 17.52 13.53 33.145 13.53 50.66 0 6.443-4.977 10.952-7.18 15.68-6.63v-17.524c-8.31-.43-16.555 2.917-25.896 10.13zM411.554 316.14c-11.585 8.947-18.645 8.947-30.23 0-17.374-13.412-34.983-13.412-52.342 0-12.36 9.542-18.375 8.293-29.113.004-8.603-6.648-16.91-9.982-25.222-10.01v17.485c4.694.036 9.4 2.212 15.007 6.543 17.59 13.588 31.94 13.588 49.54-.002 11.18-8.633 20.726-8.633 31.916.003 17.52 13.528 33.145 13.528 50.66 0 6.443-4.977 10.952-7.18 15.68-6.63V306.01c-8.31-.435-16.555 2.916-25.896 10.13zM9.71 92.193h481.143v16.784H9.71zM9.71 377.523h481.143v16.784H9.71z"/><path clip-rule="evenodd" fill="#3c3c3c" fill-rule="evenodd" d="M4.114 92.193h16.784v302.114H4.114zM479.663 92.193h16.784v302.114h-16.784z"/></svg>