<svg xmlns="http://www.w3.org/2000/svg" viewBox="0 0 60 60"><path d="M56.99 13.5H55v-3H45v3h-4V7.706C41 5.938 39.562 4.5 37.794 4.5H22.206C20.438 4.5 19 5.938 19 7.706V13.5h-4v-3H5v3H3.01C1.35 13.5 0 14.85 0 16.51v35.98c0 1.66 1.35 3.01 3.01 3.01h53.98c1.66 0 3.01-1.35 3.01-3.01V16.51c0-1.66-1.35-3.01-3.01-3.01zm-9.99-1h6v1h-6v-1zM21 7.706c0-.665.54-1.206 1.206-1.206h15.588C38.46 6.5 39 7.04 39 7.706V13.5H21V7.706zM19 15.5h31v38H10v-38h9zm-12-3h6v1H7v-1zM2 52.49V16.51c0-.557.453-1.01 1.01-1.01H8v38H3.01c-.557 0-1.01-.453-1.01-1.01zm56 0c0 .557-.453 1.01-1.01 1.01H52v-38h4.99c.557 0 1.01.453 1.01 1.01v35.98z"/></svg>