<svg xmlns="http://www.w3.org/2000/svg" viewBox="0 0 60 60"><path d="M59 28h-2.18c-.95-5.666-5.85-10-11.748-10-5.822 0-10.696 4.12-11.825 9.58-.97-.815-2.08-1.247-3.247-1.247-1.167 0-2.274.432-3.245 1.245C25.64 22.118 20.825 18 15.072 18c-6.316 0-11.507 4.85-12.02 11H1c-.553 0-1 .448-1 1s.447 1 1 1h2.05c.515 6.15 5.706 11 12.022 11 6.467 0 11.736-5.207 11.91-11.67.854-1.286 1.916-1.997 3.018-1.997 1.102 0 2.164.712 3.017 1.996.178 6.463 5.51 11.67 12.055 11.67C51.65 42 57 36.617 57 30h2c.553 0 1-.448 1-1s-.447-1-1-1zM15.072 40C9.52 40 5 35.514 5 30s4.52-10 10.072-10C20.64 20 25 24.393 25 30s-4.36 10-9.928 10zm30 0C39.52 40 35 35.514 35 30s4.52-10 10.072-10C50.64 20 55 24.393 55 30s-4.36 10-9.928 10z" fill="#3a4145"/></svg>