<svg xmlns="http://www.w3.org/2000/svg" id="Capa_1" viewBox="0 0 32.635 32.635"><defs id="defs41"><style id="style2">.cls-1 { fill: #1b1b1b; fill-rule: evenodd; }</style></defs><path d="M3.856 15.998c.043-.102.104-.194.18-.272l6.68-6.68c.163-.162.377-.244.59-.244.215 0 .428.082.59.245.328.326.328.854 0 1.18l-5.253 5.255h21.364c.46 0 .835.374.835.835 0 .46-.374.835-.835.835H6.643l5.254 5.255c.327.327.327.854 0 1.18-.326.327-.854.327-1.18 0l-6.68-6.678c-.077-.08-.138-.17-.18-.274-.085-.203-.085-.434 0-.638z" class="cls-1" id="path6" fill="#1b1b1b" fill-rule="evenodd" stroke-width=".835"/></svg>